<svg width="48" height="48" viewBox="0 0 48 48" fill="none" xmlns="http://www.w3.org/2000/svg">
<path fill-rule="evenodd" clip-rule="evenodd" d="M26.4375 1.78125L26.7188 2.0625C26.8687 2.2125 27 2.40938 27 2.48438C27 2.55937 26.9531 2.71875 26.9062 2.84063C26.85 2.95312 26.7094 3.10312 26.5781 3.16875C26.4 3.25313 24.825 3.28125 19.6875 3.28125C13.875 3.28125 12.9844 3.3 12.675 3.43125C12.4875 3.50625 12.225 3.66562 12.1125 3.77812C11.9906 3.89062 11.8031 4.14375 11.7094 4.34062C11.5406 4.67812 11.5312 5.0625 11.5312 15.7781C11.5312 26.5031 11.5406 26.8687 11.7094 27.2344C11.8125 27.4406 12.0562 27.7219 12.2531 27.8625C12.45 28.0031 12.7594 28.1625 12.9375 28.2188C13.1344 28.275 14.9062 28.3125 17.5125 28.3125C20.9062 28.3125 21.7969 28.3406 22.0125 28.4437C22.1531 28.5094 22.3313 28.6688 22.4156 28.7906C22.5 28.9125 22.875 29.9531 23.2594 31.1062C23.6438 32.25 23.9719 33.1875 24 33.1875C24.0281 33.1875 24.3844 32.1844 24.7969 30.9656C25.4344 29.0812 25.5844 28.7156 25.8094 28.5563C26.0719 28.3688 26.2125 28.3594 35.1281 28.2656L35.5781 27.9844C35.8781 27.7969 36.1031 27.5625 36.4688 26.8594V15.7687C36.4688 5.0625 36.4594 4.67813 36.2906 4.33125C36.1969 4.14375 36.0094 3.89062 35.8875 3.77812C35.775 3.66562 35.5125 3.50625 35.3156 3.43125C35.0344 3.30938 34.5281 3.28125 30.1875 3.28125L29.9062 3C29.6906 2.78437 29.6344 2.6625 29.6719 2.45625C29.7 2.31562 29.8406 2.10938 29.9812 1.99687C30.225 1.79062 30.2906 1.78125 32.5312 1.78125C34.4719 1.78125 34.9125 1.80937 35.3906 1.95C35.7 2.04375 36.1031 2.20312 36.2812 2.31562C36.4594 2.41875 36.8156 2.7375 37.0594 3.00938C37.3125 3.29063 37.6031 3.75 37.7156 4.03125C37.9031 4.51875 37.9125 4.725 37.9688 12.1875L43.6594 12.2344L44.1188 12.5156C44.3719 12.675 44.6719 12.9469 44.7937 13.125C44.9156 13.3031 45.0469 13.6031 45.0938 13.7812C45.15 13.9781 45.1875 18.9469 45.1875 38.9062H46.0031C46.6781 38.9156 46.8937 38.9531 47.1937 39.1219C47.3906 39.2344 47.6531 39.4969 47.775 39.7031C47.9813 40.0594 48 40.1625 48 41.7656C48 42.9844 47.9625 43.5844 47.8688 43.9219C47.7844 44.175 47.5875 44.5969 47.4187 44.85C47.25 45.1031 46.9219 45.4406 46.6875 45.5906C46.4531 45.75 46.0125 45.9563 45.7031 46.05C45.2062 46.2 44.7469 46.2188 38.25 46.2188L37.9688 45.9375C37.8187 45.7875 37.6875 45.5625 37.6875 45.4406C37.6781 45.3281 37.7625 45.1312 38.0437 44.7656L41.7844 44.7188C44.2969 44.6906 45.5812 44.6344 45.7031 44.5687C45.8063 44.5125 46.0312 44.3063 46.1906 44.1188C46.3594 43.9313 46.5187 43.6406 46.5469 43.4719C46.575 43.3125 46.5938 42.5344 46.5469 40.3594L30.1875 40.3125V41.175C30.1781 41.8688 30.1406 42.1125 29.9906 42.375C29.8875 42.5531 29.6531 42.8063 29.1188 43.1719H18.8812L18.5344 42.9375C18.3469 42.8063 18.1125 42.5531 18.0094 42.375C17.8594 42.1125 17.8219 41.8688 17.8125 40.3125L1.45312 40.3594L1.425 41.7656C1.40625 42.5344 1.425 43.3125 1.45312 43.4719C1.48125 43.6406 1.64062 43.9313 1.80937 44.1188C1.96875 44.3063 2.22187 44.5219 2.37187 44.5875C2.5875 44.7 5.22187 44.7188 18.5344 44.7188C34.3969 44.7094 34.4531 44.7094 34.7063 44.9062C34.9031 45.0469 34.9688 45.1688 34.9688 45.4219C34.9688 45.6562 34.8937 45.8156 34.4531 46.2281L18.6562 46.2188C3.7125 46.2188 2.83125 46.2094 2.29688 46.05C1.9875 45.9563 1.54688 45.75 1.3125 45.5906C1.07812 45.4312 0.778125 45.1406 0.6375 44.9437C0.496875 44.7375 0.290625 44.3531 0.1875 44.0813C0.028125 43.6594 0 43.3781 0 41.8781C0 40.3781 0.028125 40.125 0.1875 39.7688C0.31875 39.5063 0.50625 39.3 0.76875 39.1406C1.11563 38.9437 1.29375 38.9062 2.8125 38.9062V33.1594C2.80312 27.5344 2.8125 27.4125 3 27.1594C3.14062 26.9719 3.2625 26.9062 3.51562 26.9062C3.74062 26.9062 3.90937 26.9719 4.03125 27.1125C4.21875 27.3281 4.21875 27.4406 4.21875 38.9062H43.7812V26.5969C43.7812 19.8375 43.7438 14.1938 43.7063 14.0719C43.6688 13.95 43.5281 13.7906 43.3781 13.725C43.1813 13.6219 42.5344 13.5938 37.9688 13.5938L37.9406 20.2781C37.9219 25.0781 37.8844 27.0469 37.8 27.2812C37.7438 27.4594 37.5562 27.8438 37.3875 28.125C37.2188 28.4062 36.8719 28.7906 36.6094 28.9875C36.3469 29.1844 35.9531 29.4188 35.7188 29.5031C35.3531 29.6438 34.7719 29.6719 26.6906 29.7656L25.8844 32.1656C25.4438 33.4875 24.9937 34.6688 24.8906 34.7812C24.7875 34.8844 24.5344 35.025 24.3281 35.0813C24.0562 35.1562 23.8594 35.1562 23.625 35.0813C23.4469 35.025 23.2125 34.8844 23.1094 34.7812C23.0063 34.6688 22.5562 33.4875 21.3094 29.7656L17.0062 29.7188C13.2281 29.6719 12.6469 29.6438 12.2812 29.5031C12.0469 29.4188 11.6438 29.1844 11.3906 28.9875C11.1281 28.7906 10.7812 28.4062 10.6125 28.125C10.4437 27.8438 10.2563 27.4594 10.2 27.2812C10.1156 27.0469 10.0781 25.0781 10.0312 13.5938H7.45312C5.46562 13.5938 4.81875 13.6219 4.6125 13.725C4.47188 13.7906 4.33125 13.9219 4.28438 14.0062C4.24688 14.0906 4.21875 16.3031 4.21875 23.7188L3.98438 23.9531C3.8625 24.0844 3.64687 24.1875 3.51562 24.1875C3.38438 24.1875 3.17812 24.0844 2.8125 23.7188L2.83125 18.7313C2.85938 14.0625 2.86875 13.7156 3.0375 13.4062C3.13125 13.2281 3.3 12.975 3.4125 12.8625C3.51563 12.7406 3.77813 12.5437 3.98438 12.4406C4.34062 12.2437 4.49063 12.2344 10.0312 12.1875L10.0594 8.37188C10.0875 4.725 10.0969 4.51875 10.2844 4.03125C10.3969 3.75 10.6875 3.29063 10.9406 3.00938C11.1844 2.7375 11.5406 2.41875 11.7188 2.31562C11.8969 2.20312 12.2812 2.04375 12.5625 1.95937C13.0312 1.81875 13.7438 1.8 26.4375 1.78125V1.78125ZM19.2656 41.7656H28.7344L28.7812 40.3125H19.2094L19.2656 41.7656ZM23.4844 4.78125C23.5406 4.78125 23.7469 4.82812 23.9531 4.88437C24.2344 4.95937 24.5625 5.2125 25.2 5.85C25.7625 6.40313 26.1094 6.81563 26.175 7.03125C26.2313 7.20937 26.25 7.54688 26.1562 8.20312L28.575 10.6125C30.4687 12.5062 31.0125 13.0031 31.125 12.9375C31.2 12.8906 31.4062 12.8438 31.575 12.8438C31.7437 12.8438 32.0156 12.9 32.1844 12.975C32.3531 13.0406 32.85 13.4719 33.3 13.9313C33.9375 14.5969 34.125 14.85 34.2188 15.1875C34.2938 15.4875 34.2938 15.6938 34.2281 15.8906C34.1625 16.0594 33.0094 17.2875 31.2469 19.0406C29.3156 20.9625 28.275 21.9375 28.1062 21.975C27.9656 22.0031 27.6656 21.9844 27.45 21.9281C27.1406 21.8438 26.8594 21.6375 26.2219 21.0094C25.7719 20.5688 25.3406 20.0625 25.2656 19.9031C25.1906 19.7344 25.125 19.4531 25.125 19.2938C25.125 19.125 25.1719 18.9188 25.2188 18.8438C25.2844 18.7406 25.2281 18.6187 25.0031 18.3937C24.8438 18.225 24.675 18.0938 24.6375 18.0938C24.6 18.0938 23.3719 19.4719 21.9094 21.1688C20.4469 22.8563 19.0406 24.4125 18.7875 24.6375C18.5344 24.8531 18.1219 25.1062 17.8594 25.1906C17.6063 25.2844 17.1375 25.35 16.8281 25.35C16.5187 25.35 16.0312 25.275 15.75 25.1719C15.3656 25.05 15.0937 24.8531 14.6625 24.4313C14.2406 24.0094 14.0531 23.7281 13.9219 23.3438C13.8188 23.0625 13.7438 22.575 13.7438 22.2656C13.7438 21.9562 13.8188 21.4969 13.9031 21.2344C13.9875 20.9813 14.2219 20.5781 14.4094 20.3531C14.6062 20.1188 16.1719 18.7219 17.8875 17.2313C19.6031 15.75 21 14.5031 21 14.4656C21 14.4188 20.8875 14.2781 20.7469 14.1375C20.5125 13.9031 20.4375 13.8844 20.0625 13.9313C19.8281 13.9688 19.4906 13.95 19.3125 13.8937C19.0969 13.8187 18.6844 13.4813 18.1312 12.9188C17.4937 12.2719 17.2406 11.9531 17.1656 11.6719C17.1 11.4187 17.1 11.1938 17.1562 10.9688C17.2313 10.7156 17.9156 9.96562 20.0438 7.84687C21.5719 6.3 22.9594 4.9875 23.1094 4.9125C23.2687 4.84688 23.4375 4.79063 23.4844 4.78125ZM18.5156 11.3438L19.7344 12.5625L24.8438 7.45312C23.9344 6.54375 23.6531 6.28125 23.625 6.28125C23.5969 6.28125 22.4438 7.41563 21.0469 8.8125L18.5156 11.3438ZM21.4219 12.8438L26.25 17.6719L29.9531 13.9688C26.25 10.2656 25.1531 9.1875 25.125 9.1875C25.0969 9.1875 24.2531 10.0125 23.25 11.0156L21.4219 12.8438ZM26.5312 19.3594L27.75 20.5781L32.8594 15.4688L31.6406 14.25L26.5312 19.3594ZM18.7969 18.3094C16.9969 19.8656 15.45 21.2719 15.3656 21.4219C15.2719 21.5812 15.1687 21.8438 15.1406 22.0125C15.1125 22.1719 15.1406 22.4906 15.1969 22.7156C15.2625 22.95 15.4406 23.25 15.6469 23.4469C15.8437 23.6531 16.1438 23.8312 16.3875 23.8969C16.6031 23.9531 16.9219 23.9813 17.0906 23.9531C17.25 23.925 17.5219 23.8219 17.6719 23.7375C17.8312 23.6437 19.2 22.1344 20.7188 20.3906C22.2469 18.6375 23.5219 17.1656 23.55 17.1094C23.5875 17.0625 23.2687 16.6688 22.8469 16.2469L22.0781 15.4688L18.7969 18.3094Z" fill="url(#paint0_linear_149_7463)"/>
<defs>
<linearGradient id="paint0_linear_149_7463" x1="24" y1="1.78125" x2="24" y2="46.2281" gradientUnits="userSpaceOnUse">
<stop stop-color="#BD502B"/>
<stop offset="1" stop-color="#983F20"/>
</linearGradient>
</defs>
</svg>
