<svg width="49" height="48" viewBox="0 0 49 48" fill="none" xmlns="http://www.w3.org/2000/svg">
<g clip-path="url(#clip0_149_7469)">
<path fill-rule="evenodd" clip-rule="evenodd" d="M3.48398 0H22.084L22.6934 0.234375C23.0684 0.375 23.4902 0.6375 24.2965 1.35938L24.5965 1.06875C24.7652 0.909375 25.0277 0.69375 25.1777 0.590625C25.3277 0.478125 25.6934 0.309375 25.9746 0.196875C26.4902 0 26.5746 0 45.0996 0L45.2871 0.2625C45.4559 0.4875 45.484 0.65625 45.4746 1.70625C45.4746 2.60625 45.5027 2.90625 45.5871 2.90625C45.6527 2.90625 45.9621 3.02813 46.2715 3.17813C46.5809 3.32813 47.0309 3.65625 47.2746 3.9C47.5184 4.15312 47.8371 4.6125 48.2402 5.48438V45.3281L47.9496 45.9375C47.7902 46.275 47.4715 46.7344 47.2465 46.9594C47.0027 47.2031 46.5527 47.5031 45.4746 48H35.9777C26.5652 48 26.4902 48 25.9746 47.8031C25.6934 47.6906 25.3277 47.5219 25.1777 47.4094C25.0277 47.3063 24.7652 47.0906 24.2965 46.6406L23.7996 47.0906C23.4902 47.3625 23.0684 47.625 22.084 48H3.09961L2.46211 47.7188C2.06836 47.5312 1.65586 47.25 1.34648 46.9406C1.05586 46.6594 0.746484 46.2188 0.333984 45.3281V5.48438L0.615234 4.88437C0.793359 4.5 1.07461 4.125 1.38398 3.83438C1.65586 3.58125 2.10586 3.27187 2.36836 3.14062C2.64023 3.00938 2.92148 2.90625 2.97773 2.90625C3.07148 2.90625 3.09961 2.60625 3.09023 1.69688C3.08086 0.590625 3.09961 0.478125 3.28711 0.24375L3.48398 0ZM4.49648 6.5625C4.14023 6.92812 3.93398 7.03125 3.80273 7.03125C3.67148 7.03125 3.45586 6.92812 3.32461 6.79688C3.10898 6.58125 3.09023 6.51562 3.09023 5.48438C3.09023 4.575 3.07148 4.40625 2.94961 4.40625C2.86523 4.40625 2.60273 4.6125 2.35898 4.85625C2.09648 5.11875 1.87148 5.45625 1.80586 5.67188C1.71211 5.9625 1.69336 10.575 1.69336 25.4062C1.68398 39.1406 1.72148 44.8781 1.78711 45.1406C1.85273 45.3844 2.04961 45.675 2.34961 45.9656C2.62148 46.2281 2.95898 46.4437 3.16523 46.5C3.39023 46.5656 6.85898 46.5844 12.7934 46.575L22.0746 46.5469C22.7684 46.1531 23.0777 45.8719 23.1996 45.6844C23.3309 45.4875 23.434 45.3 23.434 45.2625C23.434 45.225 18.9621 45.1875 13.4965 45.1875H3.55898L3.09023 44.7188V8.90625C3.44648 8.55 3.66211 8.4375 3.79336 8.4375C3.92461 8.4375 4.14023 8.55 4.26211 8.67188L4.49648 8.90625V38.1562C20.9027 38.1562 21.9527 38.175 22.4027 38.3063C22.6934 38.3906 23.059 38.5406 23.2277 38.6344L23.5277 38.8125L23.4809 2.7375C23.0215 2.08125 22.7402 1.8375 22.4027 1.66875L21.8871 1.40625H4.49648V6.5625ZM26.1527 1.66875C25.834 1.8375 25.5434 2.08125 25.3652 2.33437L25.0746 2.7375L25.0277 38.8125C25.5059 38.5406 25.8715 38.3906 26.1527 38.3063C26.6121 38.175 27.6902 38.1562 35.3684 38.1562H44.059C44.059 35.8688 44.0684 35.8031 44.2934 35.5781C44.4152 35.4562 44.6309 35.3438 44.7621 35.3438C44.8934 35.3438 45.109 35.4562 45.2309 35.5781L45.4652 35.8125V44.7188L45.0059 45.1875C29.6027 45.1875 25.1215 45.225 25.1215 45.2625C25.1215 45.3 25.2246 45.4875 25.3559 45.6844C25.4871 45.8719 25.7965 46.1531 26.0402 46.2937L26.4809 46.5469C42.8402 46.5938 45.0527 46.575 45.3715 46.4906C45.6527 46.4094 45.9371 46.2281 46.2246 45.9469C46.4684 45.6938 46.6934 45.3656 46.759 45.1406C46.8434 44.8594 46.8715 40.2469 46.8715 25.4062C46.8715 10.575 46.8434 5.9625 46.759 5.67188C46.6934 5.44688 46.4684 5.11875 46.1965 4.85625C45.9527 4.6125 45.6902 4.40625 45.6059 4.40625C45.484 4.40625 45.4652 6.08437 45.4652 18.9375V33.4688C45.109 33.8344 44.9027 33.9375 44.7715 33.9375C44.6402 33.9375 44.4246 33.8344 44.2934 33.7031L44.059 33.4688V1.40625H26.6496L26.1527 1.66875ZM4.50586 40.9688C20.6215 40.9781 21.9715 40.9969 22.4121 41.1188C22.6934 41.1938 23.0777 41.3438 23.2559 41.4563L23.584 41.6531C23.4809 41.0156 23.3309 40.6688 23.1902 40.4625C23.0309 40.2375 22.7215 39.9844 22.4121 39.825L21.8965 39.5625H4.50586V40.9688ZM26.1527 39.825C25.8621 39.9844 25.5434 40.2469 25.384 40.4625C25.2434 40.6688 25.0934 41.0156 25.0559 41.2406L24.9902 41.6531C25.4965 41.3531 25.8809 41.2031 26.1621 41.1188C26.6215 40.9875 27.6902 40.9688 35.3684 40.9688H44.0684V39.5625H26.659L26.1527 39.825ZM4.50586 43.7812C19.1777 43.7812 23.4434 43.7531 23.4434 43.7156C23.4434 43.6781 23.3402 43.4906 23.209 43.2937C23.0777 43.0969 22.7684 42.825 22.5246 42.6844L22.084 42.4219L4.50586 42.375V43.7812ZM25.834 42.8063C25.684 42.9188 25.459 43.1437 25.3465 43.3219C25.234 43.5 25.1402 43.6687 25.1309 43.7156C25.1309 43.7531 29.3965 43.7812 34.5996 43.7812H44.0684V42.375C28.8059 42.3844 26.6965 42.4125 26.4434 42.4969C26.2652 42.5625 25.9934 42.7031 25.834 42.8063ZM6.37148 5.625H9.58711C12.6809 5.61562 12.8121 5.625 13.3184 6V15.1875L13.0652 15.375C12.8121 15.5625 12.6809 15.5719 6.38086 15.5625L5.91211 15.0938L5.92148 6.08438L6.37148 5.625ZM7.31836 14.1562H11.9121V7.03125H7.31836V14.1562ZM18.4652 5.625C20.8559 5.63438 21.7465 5.6625 21.8684 5.74687C21.9527 5.8125 22.0746 6.00938 22.1215 6.1875C22.1871 6.39375 22.2246 8.03438 22.2246 10.5938C22.2246 13.1531 22.1871 14.7937 22.1215 15C22.0746 15.1781 21.9527 15.3844 21.8684 15.4406C21.7465 15.525 20.8559 15.5625 18.4746 15.5625C15.3996 15.5719 15.2309 15.5625 14.7715 15.2062V5.98125L14.9965 5.80313C15.2027 5.63438 15.3996 5.625 18.4652 5.625ZM16.1309 14.1562H20.7246V7.03125H16.1309V14.1562ZM30.0996 5.625C33.1746 5.61562 33.3434 5.625 33.8027 5.98125V15.2062L33.5684 15.3844C33.3434 15.5625 33.1746 15.5719 30.0996 15.5625C27.7184 15.5625 26.8184 15.525 26.7059 15.4406C26.6121 15.3844 26.4996 15.1781 26.4434 15C26.3871 14.7937 26.3496 13.1531 26.3496 10.5938C26.3496 7.77187 26.3777 6.42187 26.4527 6.20625C26.5184 6.02812 26.6309 5.83125 26.7152 5.75625C26.8371 5.6625 27.5215 5.63438 30.0996 5.625ZM27.8496 14.1562H32.4434V7.03125H27.8496V14.1562ZM42.1934 5.625L42.6621 6.09375V15.0938L42.2027 15.5625L38.9871 15.5719C35.8934 15.5719 35.7621 15.5625 35.2559 15.1875L35.2371 6.01875L35.4902 5.82187C35.7434 5.63437 35.8559 5.625 42.1934 5.625ZM36.6621 14.1562H41.2559V7.03125H36.6621V14.1562ZM11.9027 16.9688C12.6621 16.9688 12.8402 16.9969 13.0559 17.1562C13.2527 17.2969 13.3184 17.4281 13.3184 17.6719C13.3184 17.925 13.2527 18.0469 13.0559 18.1969C12.8402 18.3563 12.6621 18.3844 11.9121 18.3844C11.1715 18.3844 10.984 18.3563 10.7871 18.1969C10.609 18.0656 10.5527 17.9344 10.5527 17.6719C10.5527 17.4281 10.609 17.2781 10.7777 17.1469C10.9559 17.0062 11.1527 16.9688 11.9027 16.9688ZM20.7621 16.9688C21.5777 16.9688 21.7371 16.9969 21.9152 17.1562C22.0652 17.2875 22.1309 17.4562 22.1309 17.6719C22.1309 17.8969 22.0652 18.0656 21.9152 18.1875C21.7371 18.3563 21.5777 18.3844 20.7715 18.3844C19.9652 18.3844 19.8059 18.3563 19.6184 18.1875C19.4871 18.075 19.4027 17.8781 19.3934 17.6813C19.384 17.4375 19.4402 17.2969 19.5996 17.1656C19.7965 16.9969 19.9559 16.9688 20.7621 16.9688ZM32.434 16.9688C33.184 16.9594 33.3715 16.9875 33.5684 17.1469C33.7371 17.2781 33.8027 17.4188 33.8027 17.6719C33.8027 17.9344 33.7371 18.0656 33.5684 18.1969C33.3715 18.3563 33.184 18.3844 32.4434 18.3844C31.6934 18.3844 31.5152 18.3563 31.2902 18.1969C31.1027 18.0563 31.0371 17.9156 31.0277 17.6813C31.0184 17.4375 31.0746 17.3156 31.2715 17.1656C31.4965 16.9969 31.6746 16.9688 32.434 16.9688ZM41.2465 16.9688C42.1277 16.9688 42.2121 16.9875 42.4277 17.2031C42.559 17.3344 42.6621 17.5406 42.6621 17.6719C42.6621 17.8031 42.559 18.0094 42.4277 18.1406C42.2121 18.3656 42.1371 18.375 41.2559 18.375C40.384 18.375 40.2996 18.3656 40.084 18.1406C39.9527 18.0094 39.8496 17.8031 39.8496 17.6719C39.859 17.5406 39.9621 17.325 40.084 17.2031C40.2902 16.9875 40.3746 16.9688 41.2465 16.9688ZM6.37148 21.1875H9.58711C12.6715 21.1781 12.8121 21.1875 13.3184 21.5625V30.75L13.0559 30.9469C12.8121 31.125 12.6715 31.1344 6.38086 31.125L5.91211 30.6562L5.92148 21.6469L6.37148 21.1875ZM7.31836 29.7188H11.9121V22.5938H7.31836V29.7188ZM18.4559 21.1969C20.8559 21.1969 21.7465 21.225 21.8684 21.3094C21.9527 21.375 22.0746 21.5719 22.1215 21.75C22.1871 21.9562 22.2246 23.5969 22.2246 26.1562C22.2246 28.7156 22.1871 30.3563 22.1215 30.5625C22.0746 30.75 21.9527 30.9469 21.8684 31.0031C21.7465 31.0875 20.8559 31.125 18.4746 31.125C15.3996 31.1344 15.2215 31.125 14.7715 30.7688V21.5438L14.9871 21.3656C15.2027 21.1969 15.3996 21.1875 18.4559 21.1969ZM16.1309 29.7188H20.7246V22.5938H16.1309V29.7188ZM30.0996 21.1875C33.1652 21.1781 33.3434 21.1875 33.8027 21.5438V30.7688L33.5684 30.9563C33.3434 31.125 33.1652 31.1344 30.0996 31.125C27.7184 31.125 26.8184 31.0875 26.7059 31.0031C26.6121 30.9469 26.4996 30.75 26.4434 30.5625C26.3871 30.3563 26.3496 28.7156 26.3496 26.1562C26.3496 23.3344 26.3777 21.9844 26.4527 21.7687C26.509 21.5906 26.6309 21.3937 26.7152 21.3187C26.8277 21.225 27.5215 21.1969 30.0996 21.1875ZM27.8496 29.7188H32.4434V22.5938H27.8496V29.7188ZM42.1934 21.1875L42.6621 21.6562V30.6562L42.2027 31.125L38.9871 31.1344C35.8934 31.1344 35.7621 31.125 35.2559 30.75L35.2371 21.5812L35.4902 21.3844C35.7434 21.1969 35.8559 21.1875 42.1934 21.1875ZM36.6621 29.7188H41.2559V22.5938H36.6621V29.7188ZM11.8934 32.5312C12.6621 32.5312 12.8402 32.5594 13.0559 32.7188C13.2527 32.8594 13.3184 32.9906 13.3184 33.2344C13.3184 33.4875 13.2527 33.6094 13.0559 33.7594C12.8402 33.9188 12.6621 33.9469 11.9121 33.9469C11.1715 33.9469 10.984 33.9188 10.7871 33.7688C10.609 33.6281 10.5527 33.4969 10.5527 33.2344C10.5527 32.9906 10.609 32.8406 10.7684 32.7094C10.9559 32.5687 11.1527 32.5312 11.8934 32.5312ZM20.7621 32.5312C21.5777 32.5312 21.7371 32.5594 21.9152 32.7188C22.0559 32.85 22.1309 33.0187 22.1309 33.2344C22.1309 33.4594 22.0559 33.6281 21.9152 33.75C21.7371 33.9188 21.5777 33.9469 20.7715 33.9469C19.9559 33.9469 19.8059 33.9188 19.6184 33.75C19.4871 33.6375 19.4027 33.4406 19.3934 33.2438C19.384 33 19.4402 32.8688 19.5996 32.7281C19.7871 32.5594 19.9559 32.5312 20.7621 32.5312ZM32.434 32.5312C33.184 32.5219 33.3715 32.5594 33.5684 32.7094C33.7371 32.8406 33.8027 32.9813 33.8027 33.2344C33.8027 33.4969 33.7371 33.6281 33.5684 33.7688C33.3715 33.9188 33.184 33.9469 32.4434 33.9469C31.6934 33.9469 31.5059 33.9188 31.2902 33.7594C31.1027 33.6188 31.0277 33.4781 31.0277 33.2438C31.0184 33 31.0746 32.8781 31.2715 32.7281C31.4965 32.5594 31.6746 32.5312 32.434 32.5312ZM41.2465 32.5312C42.1277 32.5312 42.2027 32.55 42.4277 32.7656C42.5496 32.8969 42.6621 33.1125 42.6621 33.2344C42.6621 33.3656 42.559 33.5812 42.4277 33.7031C42.2121 33.9281 42.1371 33.9375 41.2559 33.9375C40.3746 33.9375 40.2996 33.9281 40.084 33.7031C39.9527 33.5719 39.8496 33.3656 39.8496 33.2344C39.8496 33.1031 39.9527 32.8875 40.084 32.7656C40.2902 32.55 40.3746 32.5312 41.2465 32.5312Z" fill="url(#paint0_linear_149_7469)"/>
</g>
<defs>
<linearGradient id="paint0_linear_149_7469" x1="24.2871" y1="0" x2="24.2871" y2="48" gradientUnits="userSpaceOnUse">
<stop stop-color="#BD502B"/>
<stop offset="1" stop-color="#983F20"/>
</linearGradient>
<clipPath id="clip0_149_7469">
<rect width="48" height="48" fill="white" transform="translate(0.333984)"/>
</clipPath>
</defs>
</svg>
