<svg width="49" height="48" viewBox="0 0 49 48" fill="none" xmlns="http://www.w3.org/2000/svg">
<path fill-rule="evenodd" clip-rule="evenodd" d="M24.7879 0.0130676C26.0254 0.0318176 27.0473 0.106818 27.6473 0.209943C28.1629 0.294318 29.0723 0.491193 29.6629 0.631818C30.2535 0.781818 31.1629 1.05369 31.6785 1.25057C32.1941 1.43807 33.1035 1.84119 33.6941 2.13182C34.2848 2.42244 35.1941 2.94744 35.7098 3.28494C36.2254 3.63182 37.0504 4.24119 37.5379 4.65369C38.0254 5.05682 38.7848 5.76932 39.216 6.22869C39.6566 6.68807 40.3223 7.48494 40.7066 8.00057C41.091 8.51619 41.6441 9.34119 41.9254 9.82869C42.216 10.3162 42.6098 11.0568 42.7973 11.4693C42.9941 11.8818 43.3035 12.6412 43.491 13.1568C43.6785 13.6724 43.9504 14.6006 44.1004 15.2193C44.2504 15.8381 44.4379 16.8693 44.5316 17.5162C44.6254 18.1912 44.691 19.2412 44.691 20.0006C44.691 20.7224 44.616 21.8381 44.5316 22.4849C44.4379 23.1318 44.2223 24.2287 44.0535 24.9224C43.8754 25.6162 43.5848 26.5912 43.3973 27.0787C43.2098 27.5662 42.8254 28.4287 42.5441 29.0006C42.2535 29.5724 41.7566 30.4349 41.4379 30.9224C41.1191 31.4099 40.5848 32.1506 40.2473 32.5631C39.9191 32.9756 38.5785 34.4006 37.2566 35.7224C35.5129 37.4849 34.791 38.1506 34.5848 38.1974C34.3785 38.2349 34.2379 38.2068 34.0691 38.0756C33.9004 37.9443 33.8254 37.7849 33.8066 37.5224C33.7879 37.1568 33.8066 37.1381 36.3473 34.5787C37.7535 33.1631 39.1785 31.6443 39.5066 31.2037C39.8441 30.7631 40.341 30.0037 40.6316 29.5162C40.9223 29.0287 41.316 28.2881 41.5129 27.8756C41.7098 27.4631 42.0098 26.7224 42.1785 26.2349C42.3473 25.7474 42.6004 24.9224 42.7316 24.4068C42.8535 23.8912 43.0316 22.8974 43.1254 22.2037C43.2473 21.2474 43.266 20.5631 43.2285 19.3912C43.2004 18.5381 43.1066 17.4881 43.0316 17.0474C42.9566 16.6068 42.7879 15.8287 42.6566 15.3131C42.5254 14.7974 42.291 14.0193 42.1316 13.5787C41.9723 13.1381 41.616 12.3224 41.3348 11.7506C41.0535 11.1881 40.566 10.3162 40.2473 9.82869C39.9285 9.34119 39.4316 8.63807 39.1316 8.28182C38.841 7.92557 38.2223 7.25057 37.7629 6.80057C37.3035 6.34119 36.5254 5.66619 36.0379 5.29119C35.5504 4.90682 34.7441 4.36307 34.2566 4.06307C33.7691 3.76307 33.0473 3.37869 32.6629 3.20057C32.2785 3.02244 31.5754 2.73182 31.116 2.55369C30.6566 2.37557 29.8691 2.13182 29.3816 2.00057C28.8941 1.87869 28.0504 1.70057 27.5066 1.61619C26.8223 1.50369 25.9598 1.45682 24.6941 1.45682C23.4473 1.45682 22.5566 1.51307 21.8816 1.61619C21.3379 1.70057 20.5598 1.85994 20.1473 1.96307C19.7348 2.06619 19.041 2.28182 18.6004 2.43182C18.1598 2.59119 17.4004 2.90057 16.9129 3.11619C16.4254 3.34119 15.6191 3.77244 15.1316 4.06307C14.6441 4.36307 13.9035 4.85994 13.491 5.17869C13.0785 5.48807 12.3285 6.14432 11.8129 6.64119C11.3066 7.12869 10.6223 7.86932 10.2848 8.28182C9.95664 8.69432 9.42227 9.40682 9.11289 9.87557C8.80352 10.3443 8.32539 11.1881 8.05352 11.7506C7.77227 12.3224 7.41602 13.1381 7.25664 13.5787C7.09727 14.0193 6.84414 14.8631 6.70352 15.4537C6.55352 16.0443 6.37539 16.8881 6.30977 17.3287C6.23477 17.7974 6.17852 18.8662 6.17852 19.9537C6.17852 21.0037 6.23477 22.1381 6.30039 22.6256C6.37539 23.0849 6.53477 23.8912 6.65664 24.4068C6.78789 24.9224 7.03164 25.7474 7.20039 26.2349C7.37852 26.7224 7.72539 27.5474 7.97852 28.0631C8.23164 28.5787 8.65352 29.3381 8.90664 29.7506C9.15977 30.1631 9.63789 30.8568 9.96602 31.2974C10.3504 31.8037 13.116 34.6537 24.6941 46.2506L32.0535 38.8818L32.4191 38.9099C32.6816 38.9287 32.841 39.0037 32.9723 39.1724C33.1035 39.3412 33.1316 39.4818 33.0941 39.6881C33.0473 39.8943 31.9785 41.0193 29.0254 43.9724C25.2848 47.7224 25.0035 47.9849 24.6941 47.9849C24.3848 47.9849 23.9723 47.5912 17.091 40.7006C12.5816 36.1818 9.53477 33.0506 9.07539 32.4693C8.67227 31.9537 8.11914 31.1943 7.85664 30.7818C7.59414 30.3693 7.15352 29.6099 6.89102 29.0943C6.62852 28.5787 6.24414 27.7349 6.03789 27.2193C5.84102 26.7037 5.52227 25.7099 5.34414 25.0162C5.16602 24.3224 4.95039 23.1974 4.85664 22.5318C4.76289 21.8474 4.69727 20.7412 4.69727 20.0006C4.69727 19.2787 4.74414 18.2849 4.80977 17.7974C4.86602 17.3099 5.00664 16.4662 5.10977 15.9224C5.22227 15.3787 5.48477 14.3849 5.70977 13.7193C5.92539 13.0443 6.29102 12.0974 6.52539 11.6099C6.75039 11.1224 7.17227 10.3162 7.46289 9.82869C7.75352 9.34119 8.30664 8.51619 8.69102 8.00057C9.07539 7.48494 9.74102 6.68807 10.1723 6.22869C10.6035 5.76932 11.3816 5.04744 11.8973 4.62557C12.4129 4.20369 13.2379 3.59432 13.7254 3.26619C14.2129 2.94744 15.1035 2.44119 15.6941 2.14119C16.2848 1.84119 17.1941 1.44744 17.7098 1.25057C18.2254 1.06307 19.1441 0.781818 19.7441 0.631818C20.3535 0.481818 21.2816 0.294318 21.8066 0.209943C22.341 0.134943 22.791 0.0505676 22.8191 0.0224426C22.8379 -0.00568241 23.7285 -0.0056824 24.7879 0.0130676ZM25.2098 6.23807C25.5754 6.25682 26.2035 6.31307 26.616 6.36932C27.0285 6.42557 27.6848 6.54744 28.0691 6.64119C28.4535 6.74432 29.0441 6.92244 29.3816 7.05369C29.7191 7.17557 30.2816 7.40994 30.6473 7.57869C31.0129 7.73807 31.7066 8.14119 32.1941 8.46932C32.6816 8.79744 33.3941 9.33182 33.7691 9.65994C34.1441 9.97869 34.7254 10.5693 35.0629 10.9537C35.4004 11.3381 35.8598 11.9287 36.0848 12.2662C36.3098 12.6037 36.6848 13.2318 36.9191 13.6724C37.1441 14.1131 37.4629 14.8068 37.6129 15.2193C37.7629 15.6318 37.9691 16.3443 38.0816 16.8131C38.1941 17.2724 38.3254 18.1162 38.391 18.6881C38.4473 19.2787 38.4754 20.1131 38.4379 20.6568C38.4004 21.1724 38.3066 21.9693 38.2316 22.4381C38.1473 22.8974 37.941 23.7037 37.7723 24.2193C37.6035 24.7349 37.2941 25.5131 37.0879 25.9537C36.8723 26.3943 36.441 27.1537 36.1223 27.6412C35.7848 28.1474 35.1098 28.9631 34.5473 29.5443C33.9941 30.1068 33.1879 30.8193 32.7379 31.1381C32.2785 31.4568 31.5473 31.9162 31.0973 32.1599C30.6379 32.4037 29.916 32.7318 29.4754 32.8818C29.0348 33.0412 28.4066 33.2287 28.0691 33.3224C27.7316 33.4068 27.0754 33.5287 26.616 33.6037C26.1566 33.6693 25.2848 33.7349 24.6941 33.7349C24.1035 33.7349 23.2316 33.6693 22.7723 33.6037C22.3129 33.5287 21.591 33.3881 21.1785 33.2849C20.766 33.1724 20.0066 32.9193 19.491 32.7037C18.9754 32.4974 18.2535 32.1506 17.8973 31.9349C17.5316 31.7193 16.9691 31.3537 16.6316 31.1193C16.2941 30.8849 15.6473 30.3318 15.1879 29.8912C14.7285 29.4506 14.1191 28.7756 13.8285 28.3912C13.5379 28.0068 13.191 27.5193 13.0598 27.3131C12.9191 27.1068 12.6379 26.5818 12.4129 26.1412C12.1973 25.7006 11.8973 25.0256 11.7566 24.6412C11.616 24.2568 11.4098 23.5537 11.3066 23.0943C11.1941 22.6256 11.0629 21.7631 11.0066 21.1724C10.9504 20.5818 10.9316 19.7099 10.9598 19.2506C10.9973 18.7818 11.0816 18.0506 11.1566 17.6099C11.2223 17.1693 11.4191 16.3912 11.5785 15.8756C11.7379 15.3599 12.0379 14.5818 12.2441 14.1412C12.441 13.7006 12.8816 12.9412 13.2098 12.4537C13.5379 11.9662 14.0441 11.2818 14.3535 10.9349C14.6535 10.5881 15.216 10.0256 15.6004 9.67869C15.9848 9.34119 16.641 8.83494 17.0535 8.56307C17.466 8.28182 18.1879 7.86932 18.6473 7.64432C19.1066 7.41932 19.8754 7.10057 20.3348 6.94119C20.7941 6.78182 21.516 6.58494 21.9285 6.50057C22.341 6.41619 23.1004 6.31307 23.616 6.27557C24.1316 6.23807 24.8441 6.21932 25.2098 6.23807ZM20.8973 8.25369C20.3816 8.42244 19.6223 8.72244 19.2098 8.93807C18.7973 9.14432 18.1598 9.50994 17.8035 9.76307C17.4379 10.0068 16.9785 10.3443 16.7816 10.5037C16.5754 10.6724 16.4348 10.8506 16.4629 10.9068C16.491 10.9537 16.8379 11.2443 17.2316 11.5349C17.6254 11.8349 17.9629 12.0693 17.9816 12.0506C17.991 12.0412 18.1223 11.7787 18.2629 11.4693C18.4035 11.1599 18.7129 10.5693 18.9566 10.1662C19.2004 9.76307 19.4723 9.38807 19.5566 9.35057C19.6504 9.30369 19.8191 9.26619 19.9316 9.26619C20.0535 9.26619 20.241 9.33182 20.3535 9.40682C20.5129 9.50994 20.5691 9.64119 20.5691 9.89432C20.5598 10.1287 20.4566 10.4287 20.241 10.7662C20.0723 11.0474 19.7629 11.6099 19.566 12.0131C19.341 12.4724 19.2473 12.7724 19.3035 12.8193C19.3598 12.8568 19.716 13.0256 20.1004 13.1849C20.4848 13.3443 21.2441 13.5787 21.7879 13.7099C22.3316 13.8318 23.0348 13.9631 23.3535 13.9912L23.9441 14.0474V7.67244C23.4754 7.68182 22.9973 7.74744 22.5848 7.82244C22.1723 7.89744 21.4129 8.09432 20.8973 8.25369ZM25.4441 14.0474C26.2785 13.9724 26.7566 13.9068 27.0379 13.8506C27.3191 13.7943 27.891 13.6537 28.3035 13.5318C28.716 13.4099 29.2973 13.2037 29.5879 13.0724C29.8879 12.9318 30.1316 12.7724 30.1316 12.7068C30.1316 12.6506 29.9348 12.2099 29.7004 11.7506C29.466 11.2818 29.0535 10.5974 28.7816 10.2131C28.5191 9.82869 28.0316 9.26619 27.6941 8.96619C27.3566 8.65682 26.7941 8.26307 26.4285 8.08494C26.0629 7.90682 25.6973 7.76619 25.6035 7.76619C25.4535 7.76619 25.4441 7.98182 25.4441 10.9068V14.0474ZM29.691 9.05057C29.8129 9.20057 30.066 9.55682 30.2535 9.84744C30.4504 10.1474 30.7879 10.7662 31.0223 11.2349L31.4441 12.0787C32.0629 11.6381 32.4098 11.3756 32.6066 11.2068C32.8129 11.0474 32.9535 10.8599 32.9254 10.8131C32.8973 10.7568 32.5598 10.4849 32.1848 10.1943C31.8004 9.90369 31.2004 9.49119 30.8348 9.28494C30.4691 9.06932 30.0191 8.83494 29.8316 8.75057C29.6254 8.66619 29.4754 8.64744 29.4754 8.70369C29.4754 8.75057 29.5785 8.90994 29.691 9.05057ZM13.7816 14.2349C13.5473 14.6756 13.266 15.2849 13.1629 15.5943C13.0504 15.9037 12.9004 16.3631 12.8254 16.6256C12.7504 16.8787 12.6285 17.4318 12.5535 17.8443C12.4785 18.2568 12.4129 18.7537 12.4129 18.9412V19.2974H16.491C16.6785 17.3006 16.8191 16.2787 16.9223 15.7349C17.0254 15.1912 17.1941 14.4506 17.2973 14.0943C17.4004 13.7287 17.4754 13.4381 17.4566 13.4287C17.4379 13.4287 17.2129 13.2787 16.9598 13.1099C16.6973 12.9412 16.2566 12.5943 15.9754 12.3506C15.6941 12.0974 15.4316 11.9006 15.4035 11.8912C15.3754 11.8912 15.0848 12.2381 14.7754 12.6599C14.4566 13.0912 14.0066 13.7943 13.7816 14.2349ZM33.4035 12.3787C33.066 12.6506 32.5879 13.0162 32.3535 13.1756L31.9129 13.4849C32.2129 14.5349 32.3629 15.1631 32.4379 15.5474C32.5129 15.9318 32.6441 16.7381 32.7191 17.3287C32.7941 17.9193 32.8504 19.1193 32.8504 20.0006C32.8504 20.8724 32.8035 21.9693 32.7473 22.4381C32.7004 22.8974 32.5691 23.7037 32.4754 24.2193C32.3723 24.7349 32.2035 25.4662 32.1004 25.8318L31.9129 26.5162C33.0379 27.3131 33.516 27.6599 33.6941 27.8193L34.0223 28.0912C34.7066 27.2006 35.1191 26.5818 35.3816 26.1412C35.6441 25.7006 35.991 25.0068 36.1504 24.5943C36.3098 24.1818 36.5066 23.5724 36.6004 23.2349C36.6941 22.8974 36.816 22.3256 36.8723 21.9693C36.9285 21.6037 36.9848 21.1724 36.9941 21.0131L37.0223 20.7037C34.4723 20.7037 33.9004 20.6662 33.741 20.5818C33.6098 20.5256 33.4598 20.3662 33.4035 20.2349C33.3379 20.0756 33.3379 19.9162 33.4129 19.7381C33.4598 19.5974 33.591 19.4381 33.6941 19.3912C33.7973 19.3349 34.5754 19.2974 35.4285 19.2974H36.9754C36.9754 18.6787 36.9098 18.1443 36.8254 17.7037C36.741 17.2631 36.5535 16.5224 36.3941 16.0631C36.2348 15.5943 35.9629 14.9193 35.7848 14.5631C35.5973 14.1974 35.2316 13.5693 34.9598 13.1568C34.6879 12.7443 34.3598 12.2849 34.2379 12.1443L34.0223 11.8724L33.4035 12.3787ZM30.0285 14.4224C29.7004 14.5631 29.1285 14.7693 28.7723 14.8818C28.4066 14.9849 27.816 15.1349 27.4598 15.2099C27.0941 15.2943 26.4941 15.3881 26.1191 15.4256L25.4441 15.5099V19.3068C29.7098 19.3068 30.8629 19.3443 30.9754 19.4006C31.0785 19.4474 31.2004 19.5974 31.2566 19.7287C31.3129 19.8787 31.3223 20.0474 31.2566 20.2162C31.2098 20.3568 31.0598 20.5256 30.9285 20.5912C30.7598 20.6756 29.9816 20.7131 28.0691 20.7131H25.4441L25.491 24.5099C26.0723 24.5474 26.616 24.6224 27.0848 24.6974C27.5441 24.7818 28.2848 24.9506 28.7254 25.0912C29.166 25.2224 29.7473 25.4287 30.0098 25.5506C30.2816 25.6724 30.5441 25.7756 30.6004 25.7756C30.6473 25.7756 30.7785 25.4006 30.8816 24.9506C30.9754 24.5006 31.1066 23.9006 31.1535 23.6193C31.2098 23.3287 31.2941 22.6912 31.3504 22.1849C31.3973 21.6881 31.4441 20.6756 31.4441 19.9349C31.4441 19.2037 31.3785 18.0693 31.3035 17.4318C31.2191 16.7849 31.041 15.7818 30.9004 15.2099L30.6379 14.1599L30.0285 14.4224ZM18.2254 16.4006C18.1785 16.6818 18.0848 17.3568 18.0379 17.9006C17.9816 18.4443 17.9348 18.9787 17.9348 19.0912V19.3068H23.9348L23.9441 15.5099C22.8848 15.3881 22.2848 15.2943 21.9191 15.2193C21.5629 15.1443 20.9723 14.9849 20.6066 14.8818C20.2504 14.7693 19.7348 14.5818 19.4629 14.4599C19.191 14.3381 18.9098 14.2443 18.8348 14.2443C18.741 14.2443 18.6473 14.4974 18.516 15.0599C18.4129 15.5193 18.2816 16.1193 18.2254 16.4006ZM12.4035 21.0599C12.4035 21.2568 12.4691 21.7724 12.5535 22.2131C12.6379 22.6537 12.816 23.3474 12.9473 23.7599C13.0785 24.1724 13.3504 24.8662 13.566 25.3068C13.7723 25.7474 14.1848 26.4599 14.4754 26.9006C14.7754 27.3412 15.1035 27.7818 15.2066 27.8849L15.4035 28.0724C15.8816 27.6693 16.341 27.3224 16.7441 27.0412C17.2785 26.6662 17.4566 26.4787 17.4285 26.3568C17.4004 26.2724 17.2973 25.8787 17.1941 25.4943C17.091 25.1099 16.9973 24.7162 16.9973 24.6224C16.9973 24.5381 17.1004 24.3599 17.2316 24.2287C17.3535 24.0974 17.5691 23.9943 17.7004 23.9943C17.8316 23.9943 18.0379 24.0881 18.1504 24.2006C18.2816 24.3318 18.441 24.6974 18.5535 25.1006C18.6566 25.4662 18.7691 25.7756 18.8066 25.7756C18.8441 25.7756 19.0973 25.6724 19.3691 25.5506C19.641 25.4287 20.2223 25.2224 20.6535 25.0912C21.0941 24.9506 21.8348 24.7818 22.2941 24.7068C22.7629 24.6224 23.3066 24.5474 23.5129 24.5381L23.8879 24.5099L23.9066 20.7131H17.9348C18.0379 22.2412 18.0285 22.6068 17.9535 22.7474C17.8973 22.8693 17.7285 23.0099 17.5879 23.0568C17.4098 23.1224 17.2504 23.1318 17.091 23.0662C16.9691 23.0099 16.8098 22.8506 16.7535 22.7099C16.6879 22.5599 16.6129 22.0537 16.5848 21.5756L16.5285 20.7131H12.4035V21.0599ZM21.8348 26.2537C21.366 26.3568 20.5973 26.6006 20.1191 26.7881C19.641 26.9756 19.2473 27.1631 19.2473 27.2006C19.2566 27.2381 19.4066 27.5943 19.5848 27.9974C19.7723 28.4006 20.1473 29.0568 20.4191 29.4693C20.691 29.8818 21.2441 30.5287 21.6285 30.9037C22.0223 31.2787 22.5848 31.7006 22.8848 31.8506C23.1848 32.0006 23.541 32.1412 23.6816 32.1787L23.9441 32.2349V25.9537C23.3254 25.9724 23.0348 26.0006 22.9129 26.0193C22.7816 26.0381 22.2941 26.1412 21.8348 26.2537ZM25.4441 32.2349C25.8379 32.1506 26.166 32.0287 26.4285 31.8974C26.6816 31.7662 27.1035 31.5037 27.366 31.3068C27.6191 31.1193 28.116 30.6037 28.4629 30.1724C28.8191 29.7318 29.3348 28.9256 29.616 28.3724C29.8973 27.8193 30.1316 27.3131 30.1316 27.2474C30.1316 27.1818 29.7379 26.9756 29.2598 26.7787C28.7816 26.5912 28.0223 26.3474 27.5723 26.2443C27.1223 26.1412 26.466 26.0193 26.1098 25.9912L25.4723 25.9349L25.4441 32.2349ZM16.5098 28.9818C16.416 29.1131 16.4254 29.1693 16.5473 29.2537C16.6223 29.3193 17.0066 29.6099 17.391 29.9006C17.766 30.1818 18.441 30.6131 18.8816 30.8568C19.3129 31.0912 19.7535 31.2881 19.8379 31.2881C19.9691 31.2881 19.941 31.2224 19.6973 30.9318C19.5285 30.7256 19.1816 30.2099 18.9285 29.7787C18.6754 29.3474 18.3566 28.7568 18.2254 28.4568C18.0941 28.1568 17.9629 27.9131 17.9348 27.9131C17.9066 27.9131 17.5973 28.1193 17.2504 28.3724C16.9035 28.6256 16.566 28.8974 16.5098 28.9818ZM29.8973 30.6131C29.5129 31.1193 29.4191 31.2881 29.541 31.2881C29.6348 31.2881 30.066 31.0912 30.5066 30.8568C30.9379 30.6224 31.5566 30.2381 31.866 30.0131C32.1754 29.7881 32.5504 29.5068 32.7098 29.3756C32.9629 29.1693 32.9723 29.1318 32.8504 28.9912C32.766 28.8974 32.4285 28.6162 32.1004 28.3724C31.7629 28.1193 31.4629 27.9131 31.4441 27.9224C31.416 27.9224 31.1723 28.3818 30.9004 28.9349C30.6379 29.4787 30.1785 30.2381 29.8973 30.6131Z" fill="url(#paint0_linear_149_7475)"/>
<defs>
<linearGradient id="paint0_linear_149_7475" x1="24.6941" y1="0" x2="24.6941" y2="47.9849" gradientUnits="userSpaceOnUse">
<stop stop-color="#BD502B"/>
<stop offset="1" stop-color="#983F20"/>
</linearGradient>
</defs>
</svg>
