<svg width="48" height="48" viewBox="0 0 48 48" fill="none" xmlns="http://www.w3.org/2000/svg">
<g clip-path="url(#clip0_149_7482)">
<path fill-rule="evenodd" clip-rule="evenodd" d="M23.7617 0.00130337C24.9429 -0.00807163 25.3554 0.0294284 26.3398 0.235678C26.9867 0.366928 27.8679 0.601303 28.3085 0.760678C28.7492 0.910678 29.4898 1.22943 29.9492 1.4638C30.4085 1.69818 31.0835 2.07318 31.4492 2.30755C31.8148 2.54193 32.396 2.97318 32.7617 3.27318C33.1273 3.5638 33.746 4.1638 34.1492 4.59505C34.5523 5.0263 35.1242 5.7388 35.4242 6.17943C35.7242 6.62005 36.1554 7.33255 36.371 7.77318C36.596 8.2138 36.8773 8.84193 36.9992 9.17943C37.1304 9.51693 37.346 10.2294 37.4773 10.7732C37.7023 11.6732 37.721 11.9263 37.7304 13.6326C37.7304 15.2638 37.7023 15.6294 37.5054 16.4919C37.3835 17.0357 37.1585 17.8326 37.0085 18.2732C36.8492 18.7138 36.5492 19.4357 35.9492 20.7013L38.621 20.7294C41.2554 20.7576 41.3023 20.7576 41.7523 20.9919C42.0054 21.1232 42.3992 21.4419 42.6242 21.6951C42.8492 21.9576 43.0929 22.3513 43.1773 22.5857C43.2898 22.9419 43.3085 24.4607 43.3085 42.9294H47.5273L47.7617 43.1638C47.9867 43.3888 47.996 43.4544 47.996 44.5044C47.996 45.3013 47.9585 45.7419 47.8367 46.1076C47.7242 46.4357 47.5179 46.7919 47.246 47.0826C47.0023 47.3451 46.6085 47.6357 45.8398 47.9919H2.15229L1.66479 47.7669C1.35542 47.6263 0.989793 47.3451 0.717918 47.0357C0.436668 46.7263 0.211668 46.3607 0.117918 46.0701C0.0147931 45.7232 -0.0133319 45.3107 0.00541811 44.4482C0.0429181 43.3419 0.0522931 43.2763 0.277293 43.1076C0.492918 42.9388 0.671043 42.9201 4.68354 42.9294V32.9451C4.68354 23.2888 4.69292 22.9419 4.86167 22.4638C4.99292 22.1357 5.19917 21.8357 5.51792 21.5357C5.78042 21.2826 6.15542 21.0107 6.35229 20.9263C6.64292 20.7857 7.09292 20.7576 12.0429 20.7013L11.621 19.8388C11.3867 19.3607 11.0773 18.6201 10.9367 18.1794C10.796 17.7388 10.5992 16.9794 10.496 16.4919C10.3929 16.0044 10.2804 15.0951 10.2523 14.4763C10.2148 13.8201 10.2335 12.9388 10.2992 12.3669C10.3554 11.8232 10.5054 10.9794 10.6273 10.4919C10.7492 10.0044 10.9742 9.2638 11.1335 8.8513C11.2929 8.4388 11.5085 7.9888 11.6117 7.8388C11.7617 7.6513 11.8835 7.58568 12.1367 7.58568C12.3429 7.58568 12.5398 7.66068 12.6523 7.77318C12.7554 7.8763 12.8398 8.0638 12.8398 8.19505C12.8398 8.3263 12.7367 8.67318 12.6054 8.97318C12.4742 9.2638 12.2585 9.8263 12.1367 10.2107C12.0148 10.5951 11.8554 11.3544 11.771 11.8982C11.6867 12.4419 11.621 13.2201 11.621 13.6326C11.621 14.0451 11.6679 14.7669 11.7242 15.2263C11.7804 15.6857 11.9304 16.4544 12.0429 16.9138C12.1648 17.3732 12.4179 18.1138 12.596 18.5544C12.7835 18.9951 13.1304 19.6982 13.3742 20.1201C13.6273 20.5513 14.1242 21.2638 14.4804 21.7138C14.8367 22.1638 15.4929 22.8294 15.9335 23.1951C16.3742 23.5607 17.0867 24.0763 17.5273 24.3388C17.9679 24.6013 18.6242 24.9576 18.9804 25.1169C19.3367 25.2763 19.9742 25.5107 20.3867 25.6326C20.7992 25.7544 21.3898 25.9044 21.6992 25.9607C22.0085 26.0169 22.3367 26.0826 22.421 26.1107C22.5148 26.1294 22.8898 26.6076 23.246 27.1794C23.6023 27.7513 23.9398 28.2107 23.996 28.2107C24.0523 28.2107 24.3804 27.7794 24.7367 27.2451C25.0835 26.7201 25.4398 26.2419 25.5054 26.1857C25.5804 26.1294 25.9273 26.0263 26.2929 25.9607C26.6585 25.8951 27.3523 25.7169 27.8398 25.5669C28.3273 25.4076 29.1148 25.0888 29.5742 24.8544C30.0335 24.6294 30.6054 24.3107 30.8398 24.1513C31.0742 23.9919 31.571 23.6076 31.9554 23.2982C32.3398 22.9794 32.9773 22.3419 33.3617 21.8732C33.7554 21.3951 34.2804 20.6638 34.5429 20.2326C34.796 19.8013 35.1617 19.0607 35.3492 18.6013C35.5367 18.1419 35.7992 17.3169 35.9398 16.7732C36.071 16.2294 36.221 15.3107 36.2773 14.7294C36.3429 14.0169 36.3429 13.3419 36.2773 12.6201C36.221 12.0482 36.0992 11.2326 35.996 10.8201C35.9023 10.4076 35.7242 9.79818 35.5929 9.46068C35.471 9.12318 35.1992 8.5138 34.9835 8.1013C34.7773 7.6888 34.3929 7.04193 34.1304 6.66693C33.8679 6.3013 33.371 5.69193 33.0148 5.3263C32.6679 4.96068 31.9835 4.3513 31.496 3.98568C31.0085 3.62005 30.221 3.12318 29.7617 2.87943C29.3023 2.64505 28.6835 2.35443 28.4023 2.24193C28.121 2.12943 27.4835 1.94193 26.996 1.81068C26.5085 1.6888 25.6179 1.54818 25.0273 1.49193C24.3242 1.43568 23.621 1.4263 23.0117 1.49193C22.496 1.5388 21.7554 1.64193 21.371 1.7263C20.9867 1.81068 20.3585 1.97943 19.9835 2.1013C19.6179 2.23255 18.896 2.54193 18.3898 2.79505C17.8929 3.04818 17.1804 3.46068 16.8242 3.7138C16.4679 3.96693 15.7835 4.5388 15.3242 4.9888C14.621 5.65443 14.4242 5.79505 14.171 5.80443C13.946 5.80443 13.8242 5.7388 13.6835 5.54193C13.571 5.4013 13.4867 5.18568 13.496 5.05443C13.496 4.88568 13.721 4.60443 14.321 4.02318C14.7804 3.58255 15.5492 2.94505 16.0367 2.59818C16.5242 2.2513 17.321 1.7638 17.8085 1.5013C18.296 1.24818 19.0835 0.910678 19.5429 0.741928C20.0023 0.582553 20.8273 0.348178 21.371 0.226303C22.1398 0.0575534 22.6648 0.0106784 23.7617 0.00130337ZM6.29604 22.7732L6.08042 23.1013L6.08979 42.9294H7.96479L8.01167 24.4419C8.47104 24.0857 8.63979 24.0763 11.5367 24.0857C13.2148 24.0857 14.621 24.0576 14.6492 24.0107C14.6867 23.9732 14.6117 23.8794 14.4992 23.7951C14.3867 23.7107 13.9929 23.2982 13.6367 22.8763L12.9804 22.1076C7.49604 22.1169 7.13042 22.1357 6.83979 22.2857C6.66167 22.3701 6.41792 22.5951 6.29604 22.7732ZM34.346 22.8763C33.9898 23.2982 33.6054 23.7107 33.4929 23.7951C33.3804 23.8794 33.3148 23.9732 33.3523 24.0201C33.3898 24.0576 34.7867 24.0857 36.4648 24.0857C39.3523 24.0763 39.521 24.0857 39.746 24.2638L39.9804 24.4419L40.0273 42.9294H41.9023L41.9117 23.1013C41.5742 22.5951 41.3304 22.3701 41.1523 22.2857C40.8617 22.1357 40.496 22.1169 37.9085 22.1169H34.9929L34.346 22.8763ZM9.37104 25.4919V42.9294H33.1835C33.5492 43.2951 33.6523 43.5013 33.6523 43.6513C33.6523 43.8013 33.5679 43.9982 33.446 44.1201L33.2304 44.3263L1.40229 44.3357C1.40229 45.2919 1.45854 45.6201 1.56167 45.8263C1.65542 46.0044 1.88042 46.2482 2.05854 46.3701L2.38667 46.5857H45.6054C46.1117 46.2482 46.3367 46.0044 46.421 45.8263C46.5242 45.6201 46.5898 45.2919 46.5898 44.9169V44.3357H36.4648C36.0992 43.9701 35.996 43.7544 35.996 43.6326C35.996 43.5013 36.0992 43.2857 36.221 43.1638C36.446 42.9388 36.5117 42.9294 37.5335 42.9294H38.621V25.4919L31.3554 25.4826C29.8273 26.2701 29.0304 26.6263 28.5898 26.7763C28.1492 26.9357 27.4554 27.1326 27.0523 27.2357L26.3117 27.4138C24.6617 29.8232 24.3523 30.1982 24.1835 30.2357C24.0523 30.2638 23.8554 30.2638 23.7335 30.2357C23.5929 30.1982 23.2273 29.7107 22.6085 28.7826L21.6992 27.3857C20.8273 27.2169 20.1335 27.0107 19.5898 26.8326C19.046 26.6544 18.1367 26.2701 17.5742 25.9701L16.5429 25.4451L9.37104 25.4919ZM24.2304 5.8513C24.4835 5.87943 24.8867 5.99193 25.1117 6.1138C25.346 6.2263 25.6742 6.4888 25.8429 6.69505C26.021 6.9013 26.2273 7.29505 26.3117 7.58568C26.396 7.88568 26.4335 8.27005 26.4054 8.52318C26.3773 8.74818 26.2742 9.1138 26.171 9.32005C26.0679 9.5263 25.8429 9.8263 25.6648 9.98568C25.496 10.1544 25.1679 10.3794 24.9335 10.4826C24.6898 10.5857 24.3148 10.6701 24.0429 10.6701C23.7804 10.6701 23.4054 10.6232 23.2085 10.5576C23.0023 10.4919 22.646 10.2763 22.421 10.0701C22.1867 9.8638 21.9242 9.53568 21.8304 9.3388C21.7273 9.14193 21.6242 8.80443 21.596 8.5888C21.5585 8.37318 21.5773 7.97943 21.6429 7.7263C21.6992 7.4638 21.8585 7.0888 22.0085 6.88255C22.1492 6.6763 22.4117 6.39505 22.5898 6.27318C22.7679 6.14193 23.1054 5.98255 23.3398 5.91693C23.5742 5.86068 23.9679 5.82318 24.2304 5.8513ZM23.096 7.79193C22.9929 7.99818 22.9648 8.2138 23.0023 8.44818C23.0398 8.68255 23.1523 8.87943 23.3398 9.0388C23.5367 9.19818 23.7335 9.27318 23.996 9.27318C24.2585 9.27318 24.4554 9.19818 24.6523 9.0388C24.8398 8.87943 24.9523 8.68255 24.9898 8.44818C25.0273 8.2138 24.9992 7.99818 24.896 7.79193C24.8023 7.6138 24.6148 7.4263 24.4179 7.3513C24.2398 7.26693 24.0335 7.21068 23.9679 7.21068C23.9117 7.21068 23.7148 7.2763 23.546 7.3513C23.3773 7.4263 23.1804 7.62318 23.096 7.79193ZM23.996 11.8982C24.4367 11.8982 24.7367 11.9544 25.0742 12.1138C25.3273 12.2357 25.6835 12.4982 25.8523 12.6951C26.021 12.9013 26.2179 13.2763 26.2929 13.5388C26.4054 13.9044 26.4335 14.6357 26.4335 17.1013C26.4335 19.6701 26.4054 20.2794 26.2835 20.7107C26.171 21.0763 26.0117 21.3388 25.6929 21.6576C25.3835 21.9763 25.121 22.1357 24.746 22.2482C24.4648 22.3232 24.1273 22.3982 23.996 22.3982C23.8648 22.3982 23.5273 22.3232 23.246 22.2482C22.871 22.1357 22.6085 21.9763 22.2992 21.6576C21.9804 21.3388 21.821 21.0763 21.7085 20.7107C21.5773 20.2794 21.5585 19.6701 21.5585 17.1013C21.5585 14.6357 21.5867 13.9044 21.6992 13.5388C21.7742 13.2763 21.971 12.9013 22.1398 12.6951C22.3085 12.4982 22.6554 12.2357 22.9179 12.1138C23.2554 11.9544 23.5554 11.8982 23.996 11.8982ZM23.1617 13.6982C22.9742 13.9982 22.9648 14.0919 22.9648 17.1013C22.9554 20.1576 22.9648 20.1951 23.171 20.5138C23.2929 20.6919 23.5085 20.8794 23.6679 20.9263C23.846 20.9826 24.071 20.9826 24.2773 20.9263C24.4929 20.8701 24.6804 20.7294 24.821 20.5138C25.0273 20.1951 25.0367 20.1576 25.0273 17.1201C25.0273 14.5794 24.9992 13.9982 24.8867 13.7732C24.8117 13.6138 24.671 13.4544 24.5773 13.4076C24.4929 13.3607 24.3148 13.3044 24.1835 13.2763C24.0523 13.2482 23.8179 13.2669 23.6585 13.3138C23.4992 13.3607 23.2742 13.5388 23.1617 13.6982ZM18.4835 29.7576L18.6617 29.9919C18.7648 30.1138 18.8492 30.3388 18.8398 30.4794C18.8398 30.6201 18.7554 30.8263 18.6523 30.9294C18.4742 31.1076 18.3429 31.1169 15.5773 31.1169C13.1679 31.1169 12.6617 31.0888 12.4835 30.9763C12.3335 30.8732 12.2773 30.7419 12.2773 30.4794C12.2679 30.2544 12.3335 30.0763 12.4367 29.9732C12.5304 29.8888 12.671 29.8044 12.746 29.7669C12.821 29.7388 14.1429 29.7294 18.4835 29.7576ZM32.5367 29.7294C35.1804 29.7482 35.3304 29.7669 35.5179 29.9451C35.6585 30.0669 35.7148 30.2357 35.7148 30.4794C35.7148 30.7419 35.6585 30.8732 35.4992 30.9763C35.3304 31.0888 34.8242 31.1169 32.4054 31.1169C29.6492 31.1169 29.5179 31.1076 29.3398 30.9294C29.2367 30.8263 29.1523 30.6294 29.1523 30.5076C29.1523 30.3763 29.1992 30.1794 29.2648 30.0763C29.3304 29.9732 29.4617 29.8419 29.5648 29.7951C29.6773 29.7482 31.0085 29.7201 32.5367 29.7294ZM23.9867 33.8263C33.9054 33.8263 35.321 33.8451 35.4992 33.9669C35.6679 34.0794 35.7148 34.2013 35.7148 34.4919C35.7148 34.7919 35.6585 34.9044 35.4523 35.0544C35.1992 35.2419 35.1148 35.2419 12.746 35.2419L12.5023 35.0263C12.3148 34.8669 12.2585 34.7263 12.2585 34.4919C12.2648 34.2732 12.3367 34.1076 12.4742 33.9951C12.6617 33.8451 13.3367 33.8357 23.9867 33.8263ZM17.4429 37.8669H30.5585L30.8023 38.0732C30.9898 38.2326 31.046 38.3732 31.046 38.6169C31.0367 38.8419 30.971 38.9919 30.821 39.1044C30.6148 39.2638 30.2023 39.2732 23.996 39.2732C17.7898 39.2732 17.3679 39.2638 17.1617 39.1044C17.0117 38.9919 16.9367 38.8419 16.9273 38.6169C16.9273 38.3826 16.9929 38.2419 17.1804 38.0826L17.4429 37.8669Z" fill="url(#paint0_linear_149_7482)"/>
</g>
<defs>
<linearGradient id="paint0_linear_149_7482" x1="23.998" y1="0" x2="23.998" y2="47.9919" gradientUnits="userSpaceOnUse">
<stop stop-color="#BD502B"/>
<stop offset="1" stop-color="#983F20"/>
</linearGradient>
<clipPath id="clip0_149_7482">
<rect width="48" height="48" fill="white"/>
</clipPath>
</defs>
</svg>
