<svg width="49" height="48" viewBox="0 0 49 48" fill="none" xmlns="http://www.w3.org/2000/svg">
<g clip-path="url(#clip0_149_7488)">
<path fill-rule="evenodd" clip-rule="evenodd" d="M24.4746 2.25722C24.6809 2.27597 25.1215 2.37909 25.459 2.48222C25.8246 2.59472 26.5559 2.96972 27.2871 3.43847C27.9527 3.85097 28.7215 4.31034 28.9746 4.45097C29.4434 4.69472 29.4527 4.69472 31.6465 4.70409C33.0527 4.71347 33.9996 4.76034 34.2715 4.83534C34.5059 4.89159 34.8996 5.06034 35.1527 5.19159C35.4059 5.33222 35.809 5.66034 36.0434 5.92284C36.2777 6.19472 36.784 6.99159 37.159 7.70409C37.534 8.42597 37.9934 9.20409 38.1715 9.44784C38.359 9.71034 38.7527 10.0666 39.1184 10.301C39.4746 10.526 40.2152 10.9478 40.7871 11.2385C41.3871 11.5478 42.0434 11.9791 42.3715 12.2603C42.7277 12.5885 43.009 12.9447 43.1871 13.3197C43.3652 13.6853 43.4871 14.1353 43.5434 14.5853C43.5902 14.9697 43.5996 15.776 43.5434 17.4447L44.509 17.9041C45.3621 18.3072 45.5684 18.4572 46.3184 19.2166C47.0027 19.901 47.2465 20.2291 47.5652 20.8666C47.7809 21.3072 48.0434 22.001 48.1559 22.4135C48.3152 23.0322 48.3434 23.3416 48.3059 24.1478C48.2777 24.6916 48.1934 25.3853 48.109 25.6947C48.0246 26.0041 47.7809 26.6135 47.5652 27.0541C47.2465 27.6916 46.9934 28.0197 46.3184 28.7041C45.5684 29.4635 45.3621 29.6135 43.5434 30.476L43.5809 31.5541C43.5996 32.1447 43.5902 32.951 43.5434 33.3353C43.4871 33.7853 43.3652 34.2353 43.1871 34.601C43.009 34.976 42.7277 35.3322 42.3715 35.6603C42.0434 35.9416 41.3871 36.3728 40.7871 36.6822C40.2152 36.9728 39.4746 37.3947 39.1184 37.6197C38.7527 37.8541 38.359 38.2103 38.1715 38.4635C37.9934 38.7166 37.534 39.4947 37.159 40.2166C36.784 40.9291 36.2777 41.726 36.0434 41.9978C35.809 42.2603 35.4059 42.5885 35.1527 42.7291C34.8996 42.8603 34.5059 43.0291 34.2715 43.0853C34.009 43.1603 33.034 43.2072 31.6465 43.2166C29.4527 43.226 29.4434 43.226 28.9746 43.4697C28.7121 43.6103 27.9809 44.051 27.334 44.4635C26.6027 44.9228 25.8996 45.2885 25.459 45.4291C25.0746 45.5603 24.5684 45.6635 24.334 45.6635C24.0996 45.6635 23.5934 45.5603 23.209 45.4291C22.8246 45.3072 22.1496 44.9697 21.709 44.6885C21.2684 44.4072 20.5934 43.9947 20.209 43.7697C19.8246 43.5447 19.3371 43.3197 19.1309 43.2635C18.8965 43.1978 18.1652 43.1697 17.1621 43.1978C16.2902 43.226 15.2684 43.2072 14.9121 43.1697C14.5184 43.1135 14.0309 42.9728 13.6934 42.8135C13.3371 42.6447 12.9621 42.3541 12.6621 42.026C12.3809 41.7166 11.9215 41.0041 11.509 40.2166C11.134 39.4947 10.6746 38.7166 10.4965 38.4635C10.309 38.2103 9.91523 37.8541 9.54961 37.6197C9.19336 37.3947 8.44336 36.9728 7.88086 36.6822C7.28086 36.3728 6.62461 35.9416 6.29648 35.6603C5.94023 35.3322 5.65898 34.976 5.48086 34.601C5.32148 34.2728 5.17148 33.7666 5.12461 33.3822C5.07773 33.0166 5.05898 32.2197 5.13398 30.476L4.15898 30.0166C3.30586 29.6135 3.09961 29.4635 2.34961 28.7041C1.67461 28.0291 1.42148 27.6916 1.10273 27.0541C0.887109 26.6135 0.624609 25.9197 0.521484 25.5072C0.408984 25.0572 0.333984 24.4385 0.333984 23.9603C0.333984 23.4822 0.408984 22.8635 0.521484 22.4135C0.624609 22.001 0.887109 21.3072 1.10273 20.8666C1.42148 20.2291 1.67461 19.8916 2.34961 19.2166C3.09961 18.4572 3.30586 18.3072 5.13398 17.4447L5.08711 16.3197C5.05898 15.701 5.07773 14.8947 5.12461 14.5385C5.17148 14.1541 5.32148 13.6478 5.48086 13.3197C5.65898 12.9447 5.94023 12.5885 6.29648 12.2603C6.62461 11.9791 7.28086 11.5478 7.88086 11.2385C8.45273 10.9478 9.19336 10.526 9.54961 10.301C9.91523 10.0666 10.309 9.71034 10.4965 9.45722C10.6746 9.20409 11.134 8.42597 11.509 7.70409C11.884 6.99159 12.3902 6.19472 12.6246 5.92284C12.859 5.66034 13.2621 5.33222 13.5152 5.19159C13.7684 5.06034 14.1621 4.89159 14.3965 4.83534C14.6684 4.76034 15.6152 4.71347 19.2246 4.69472L19.7402 4.42284C20.0215 4.27284 20.7152 3.86034 21.2871 3.49472C21.859 3.12909 22.4684 2.77284 22.6465 2.69784C22.8246 2.61347 23.2277 2.48222 23.5371 2.38847C23.8559 2.28534 24.2684 2.22909 24.4746 2.25722ZM21.709 4.88222C21.0621 5.29472 20.284 5.73534 19.9746 5.86659C19.4309 6.09159 19.3465 6.10097 17.2559 6.11034C15.7277 6.11034 14.959 6.14784 14.6309 6.24159C14.2934 6.33534 14.0402 6.49472 13.7402 6.80409C13.459 7.09472 13.0652 7.72284 12.5684 8.68847C11.9309 9.91659 11.7246 10.226 11.1621 10.7885C10.609 11.3416 10.2902 11.5572 9.14648 12.1478C8.39648 12.5322 7.59961 13.001 7.36523 13.1791C7.13086 13.3666 6.86836 13.6853 6.76523 13.8822C6.67148 14.0885 6.55898 14.4728 6.51211 14.726C6.47461 14.9885 6.46523 15.6447 6.50273 16.2072L6.56836 17.2103H9.33398C9.89648 16.0853 10.3652 15.2978 10.7496 14.726C11.2559 13.9666 11.7809 13.3478 12.7465 12.3728C13.7215 11.4072 14.3402 10.8822 15.0996 10.376C15.6715 10.001 16.5902 9.46659 17.1621 9.18534C17.734 8.91347 18.634 8.53847 19.1777 8.36034C19.7215 8.18222 20.6215 7.94784 21.1934 7.83534C21.8965 7.69472 22.7215 7.61034 23.7715 7.58222C24.7184 7.54472 25.6934 7.57284 26.3027 7.64784C26.8465 7.71347 27.7465 7.88222 28.3184 8.02284C28.8902 8.16347 29.734 8.43534 30.1934 8.61347C30.6527 8.79159 31.3746 9.10097 31.7871 9.30722C32.1996 9.51347 32.9965 9.99159 33.5684 10.376C34.3277 10.8822 34.9465 11.4072 35.9215 12.3728C36.8871 13.3478 37.4121 13.9666 37.9184 14.726C38.3027 15.2978 38.7715 16.0853 38.9684 16.4885L39.334 17.2103H42.0996C42.2027 15.6447 42.1934 14.9791 42.1559 14.726C42.109 14.4635 41.9965 14.0885 41.9027 13.8822C41.7996 13.6853 41.5371 13.3666 41.3027 13.1791C41.0684 13.001 40.2715 12.5322 39.5215 12.1478C38.3777 11.5572 38.059 11.3416 37.5059 10.7885C36.9434 10.226 36.7371 9.91659 36.0996 8.68847C35.6027 7.74159 35.209 7.09472 34.9277 6.80409C34.6184 6.49472 34.3746 6.33534 34.0371 6.24159C33.709 6.14784 32.9402 6.11034 31.4121 6.11034C29.3215 6.10097 29.2371 6.09159 28.6934 5.86659C28.384 5.73534 27.709 5.35097 27.1934 5.02284C26.6777 4.69472 25.984 4.28222 25.6465 4.10409C25.1965 3.86034 24.8965 3.76659 24.4746 3.73847C24.034 3.71034 23.7996 3.74784 23.3965 3.92597C23.1152 4.04784 22.3559 4.47909 21.709 4.88222ZM20.4902 9.42909C20.1059 9.54159 19.4871 9.73847 19.1309 9.86972C18.7746 10.001 18.0902 10.301 17.6309 10.5353C17.1715 10.7603 16.4871 11.1447 16.1309 11.3791C15.7746 11.6041 15.1746 12.0447 14.8184 12.3353C14.4621 12.626 13.8059 13.2447 13.3652 13.7135C12.9246 14.1728 12.3527 14.8666 12.0809 15.251C11.8184 15.6353 11.4527 16.2072 11.2652 16.5353C11.0777 16.8541 10.9559 17.1353 10.9934 17.1635C11.0402 17.1916 12.3902 17.2103 13.9934 17.2103H16.9277C17.2277 17.6135 17.3121 17.801 17.3027 17.8947C17.3027 17.9791 17.1996 18.1666 17.0777 18.3166L16.8527 18.5697C6.37148 18.6635 5.87461 18.6822 5.44336 18.8416C5.18086 18.9353 4.74023 19.1416 4.45898 19.301C4.17773 19.4603 3.66211 19.8635 3.32461 20.201C2.85586 20.6697 2.60273 21.0166 2.31211 21.6166C2.04961 22.1697 1.89023 22.6478 1.81523 23.1635C1.73086 23.7447 1.73086 24.0916 1.81523 24.7103C1.89961 25.2916 2.03086 25.7228 2.31211 26.3041C2.60273 26.9041 2.85586 27.251 3.32461 27.7197C3.66211 28.0572 4.17773 28.4603 4.45898 28.6197C4.74023 28.7791 5.19023 28.9853 5.44336 29.0885C5.88398 29.2478 6.52148 29.2572 17.5184 29.3041L29.134 29.351C29.4809 29.7541 29.584 29.9416 29.584 30.0353C29.5934 30.1197 29.509 30.3072 29.3965 30.4572L29.209 30.7103C15.109 30.7103 11.0027 30.7385 10.984 30.7853C10.9652 30.8228 11.1809 31.2353 11.4621 31.6947C11.7434 32.1541 12.1465 32.7728 12.3621 33.0541C12.5777 33.3353 13.1121 33.9447 13.5527 34.4041C13.9934 34.8541 14.7902 35.5666 15.334 35.9697C15.8777 36.3822 16.8059 36.9635 17.3965 37.2635C17.9871 37.5728 18.9152 37.976 19.459 38.1635C20.0027 38.351 20.8652 38.5947 21.3809 38.7072C22.1777 38.876 22.6184 38.9041 24.334 38.9041C26.0496 38.9041 26.4902 38.876 27.2871 38.7072C27.8027 38.5947 28.5621 38.3885 28.9746 38.2478C29.3871 38.1166 30.184 37.7885 30.7559 37.5166C31.3277 37.2447 32.1059 36.8228 32.4902 36.5791C32.8746 36.326 33.484 35.876 33.8496 35.5853C34.2152 35.2853 34.8246 34.7135 35.209 34.3103C35.5934 33.8978 36.0902 33.3353 36.3059 33.0541C36.5215 32.7728 36.9152 32.1822 37.1777 31.7416C37.4402 31.301 37.6465 30.8885 37.6465 30.8322C37.6465 30.7385 36.9527 30.7103 34.5059 30.7103C31.4871 30.7103 31.3559 30.701 31.1777 30.5228C31.0746 30.4197 30.9902 30.2228 30.9902 30.0822C30.9809 29.9322 31.0652 29.7166 31.1684 29.5853L31.3465 29.351C42.709 29.2572 42.7652 29.2572 43.3184 29.0416C43.6277 28.9291 44.0684 28.7228 44.3027 28.5822C44.5371 28.4416 45.0059 28.0572 45.3434 27.7197C45.8121 27.251 46.0652 26.9041 46.3559 26.3041C46.6371 25.7228 46.7684 25.2916 46.8527 24.7103C46.9371 24.0916 46.9371 23.7447 46.8527 23.1635C46.7777 22.6478 46.6184 22.1603 46.3559 21.6166C46.0559 20.9885 45.8309 20.6791 45.2777 20.1447C44.7809 19.6572 44.3871 19.3666 43.8996 19.1416C43.534 18.9635 42.9996 18.776 42.7277 18.7197C42.3902 18.6447 38.7434 18.6166 30.8027 18.6166C21.3527 18.6166 19.3184 18.5978 19.1027 18.4853C18.9621 18.4197 18.8215 18.2885 18.7746 18.2041C18.7371 18.1197 18.709 17.951 18.709 17.8197C18.709 17.6885 18.7934 17.501 18.8965 17.3978C19.084 17.2103 19.2059 17.2103 28.3465 17.2103C33.4465 17.2103 37.6465 17.1916 37.6746 17.1635C37.7121 17.1353 37.5434 16.7885 37.309 16.3947C37.0746 15.9916 36.6809 15.3916 36.4465 15.0541C36.2121 14.7166 35.5277 13.9572 34.9371 13.3572C34.3371 12.7666 33.5777 12.0822 33.2402 11.8478C32.9027 11.6041 32.2465 11.1916 31.7871 10.9197C31.3277 10.6572 30.5027 10.2541 29.959 10.0385C29.4152 9.82284 28.6371 9.56034 28.2246 9.44784C27.8121 9.33534 27.0527 9.18534 26.5371 9.10097C25.9934 9.02597 25.0184 8.96972 24.2402 8.96972C23.4902 8.97909 22.4965 9.03534 22.0371 9.11034C21.5777 9.18534 20.8746 9.32597 20.4902 9.42909ZM6.49336 31.7228C6.46523 32.276 6.47461 32.9322 6.51211 33.1947C6.55898 33.4478 6.67148 33.8322 6.76523 34.0385C6.86836 34.2353 7.13086 34.5541 7.36523 34.7416C7.59961 34.9197 8.39648 35.3885 9.14648 35.7728C10.2902 36.3635 10.609 36.5791 11.1621 37.1322C11.7246 37.6947 11.9309 38.0041 12.5684 39.2322C13.0652 40.1978 13.459 40.826 13.7402 41.1166C14.0402 41.426 14.2934 41.5853 14.6309 41.6791C14.959 41.7728 15.7277 41.8103 17.2559 41.8103C19.3559 41.8197 19.4309 41.8291 19.9746 42.0635C20.284 42.1947 21.1277 42.6635 21.8496 43.1135C22.5715 43.5635 23.3777 44.0041 23.6309 44.0885C23.9027 44.1728 24.2777 44.2197 24.5215 44.1916C24.7559 44.1728 25.2152 44.0228 25.5527 43.8541C25.8902 43.6947 26.6215 43.2635 27.1934 42.8978C27.7652 42.5416 28.459 42.1478 28.7402 42.026C29.2184 41.8385 29.4059 41.8197 31.4121 41.8103C32.9402 41.8103 33.709 41.7728 34.0371 41.6791C34.3746 41.5853 34.6184 41.426 34.9277 41.1166C35.209 40.826 35.6027 40.1791 36.0996 39.2322C36.7371 38.0041 36.9434 37.6947 37.5059 37.1322C38.059 36.5791 38.3777 36.3635 39.5121 35.7728C40.2621 35.3885 41.059 34.9197 41.2934 34.7416C41.5371 34.5541 41.7996 34.2353 41.9027 34.0385C41.9965 33.8322 42.109 33.4478 42.1559 33.1947C42.1934 32.9322 42.2027 32.276 42.1652 31.7135L42.0996 30.7103H39.334C38.7715 31.8353 38.3027 32.6228 37.9184 33.1947C37.4215 33.9541 36.8871 34.5728 35.9215 35.5478C34.9184 36.5416 34.3371 37.0385 33.5215 37.5822C32.9309 37.976 32.0027 38.501 31.459 38.7635C30.9152 39.026 30.034 39.3822 29.4902 39.5603C28.9465 39.7385 28.0184 39.9822 27.4277 40.1041C26.4996 40.2916 26.0777 40.3197 24.334 40.3197C22.5902 40.3197 22.1684 40.2916 21.2402 40.1041C20.6496 39.9822 19.7215 39.7385 19.1777 39.5603C18.634 39.3822 17.6496 38.9603 16.9746 38.6322C16.2996 38.2947 15.3527 37.7416 14.8652 37.3947C14.359 37.0385 13.4215 36.2135 12.6996 35.4916C11.7809 34.5728 11.2465 33.9447 10.7496 33.1947C10.3652 32.6228 9.89648 31.8353 9.69961 31.4322L9.33398 30.7103H6.54961L6.49336 31.7228ZM24.3246 13.0853C27.6152 13.0853 27.6621 13.0853 27.8496 13.2822C27.9527 13.3947 28.0371 13.6103 28.0371 13.751C28.0371 13.9103 27.9434 14.1166 27.6059 14.4541H21.0527L20.8465 14.2385C20.7152 14.1166 20.6309 13.9103 20.6309 13.751C20.6309 13.6103 20.7059 13.3947 20.809 13.2916C20.9777 13.0947 21.0527 13.0853 24.3246 13.0853ZM7.74023 21.026C7.91836 21.0541 8.25586 21.1291 8.49023 21.2041C8.72461 21.2791 9.08086 21.476 9.28711 21.6541C9.49336 21.8228 9.78398 22.1978 9.94336 22.4791C10.1871 22.9197 10.2246 23.0697 10.2246 23.7353C10.2246 24.3916 10.1871 24.5697 9.94336 25.0478C9.74648 25.4228 9.51211 25.7041 9.19336 25.9478C8.93086 26.1447 8.55586 26.351 8.34961 26.4072C8.14336 26.4635 7.72148 26.5103 7.41211 26.5103C6.98086 26.501 6.70898 26.4353 6.25898 26.2197C5.84648 26.0135 5.58398 25.8072 5.34023 25.4885C5.16211 25.2447 4.94648 24.8135 4.86211 24.5322C4.76836 24.2135 4.73086 23.8291 4.75898 23.5478C4.78711 23.2853 4.89023 22.8822 4.99336 22.6572C5.08711 22.4228 5.34023 22.0572 5.53711 21.851C5.74336 21.6447 6.08086 21.401 6.28711 21.3072C6.49336 21.2041 6.83086 21.101 7.03711 21.0541C7.24336 21.0166 7.56211 21.0072 7.74023 21.026ZM6.73711 22.6572C6.61523 22.7322 6.43711 22.9385 6.33398 23.126C6.23086 23.3041 6.14648 23.5947 6.14648 23.7822C6.13711 23.9697 6.23086 24.2322 6.35273 24.4291C6.47461 24.5978 6.67148 24.8228 6.80273 24.926C6.94336 25.0291 7.19648 25.1041 7.45898 25.1041C7.71211 25.1135 7.99336 25.0478 8.18086 24.9353C8.34961 24.8416 8.56523 24.6166 8.66836 24.4385C8.77148 24.251 8.85586 23.9697 8.85586 23.801C8.86523 23.6322 8.79023 23.3416 8.69648 23.1635C8.61211 22.976 8.43398 22.751 8.30273 22.676C8.17148 22.5916 7.93711 22.4978 7.77773 22.4697C7.61836 22.4322 7.36523 22.4322 7.21523 22.4697C7.06523 22.4978 6.84961 22.5822 6.73711 22.6572ZM12.6809 20.9697C13.009 20.9697 13.4496 21.0072 13.6652 21.0635C13.8902 21.1103 14.2277 21.2978 14.434 21.4572C14.6402 21.626 14.8559 21.8978 14.9309 22.0666C14.9965 22.2353 15.0527 22.5635 15.0527 22.7978C15.0527 23.0322 14.9684 23.3791 14.8652 23.5947C14.7621 23.7916 14.5371 24.0635 14.0684 24.4103L14.5559 24.9822C14.9402 25.4228 15.0527 25.6291 15.0527 25.8635C15.0434 26.0322 14.9684 26.2478 14.884 26.3322C14.7809 26.4353 14.584 26.501 14.3684 26.501C14.059 26.501 13.9652 26.4353 12.9434 25.2635L12.8684 25.7135C12.8309 25.9666 12.7277 26.2478 12.634 26.3322C12.5402 26.4353 12.3434 26.501 12.1465 26.501C11.9684 26.4916 11.7434 26.4166 11.6496 26.3322C11.4996 26.1822 11.4809 25.9478 11.4809 23.7822C11.4809 21.6072 11.4996 21.3728 11.6496 21.2322C11.7434 21.1478 11.884 21.0635 11.959 21.0353C12.034 21.0072 12.3621 20.9791 12.6809 20.9697ZM13.1309 23.126C13.2621 23.126 13.4309 23.0978 13.5059 23.0791C13.5809 23.051 13.6465 22.9197 13.6465 22.7978C13.6465 22.6572 13.5715 22.5166 13.459 22.4697C13.3559 22.4135 13.1871 22.376 13.084 22.376C12.9246 22.376 12.8965 22.4322 12.8965 22.751C12.8965 23.0791 12.9152 23.126 13.1309 23.126ZM17.3496 21.026C17.4527 21.0541 17.6215 21.1572 17.7246 21.2603C17.9027 21.4291 17.9121 21.5603 17.9121 23.7728C17.9121 25.976 17.9027 26.1166 17.7246 26.3041C17.5996 26.4353 17.4277 26.501 17.209 26.501C17.0309 26.4916 16.8059 26.4166 16.7121 26.3322C16.5621 26.1822 16.5434 25.9478 16.5434 23.7728C16.5434 21.6072 16.5621 21.3728 16.7121 21.2322C16.8059 21.1478 16.9465 21.0635 17.0215 21.0353C17.0965 21.0072 17.2465 21.0072 17.3496 21.026ZM22.1309 20.9791C22.1777 20.9697 22.4777 21.026 22.7871 21.1103C23.0965 21.1947 23.4809 21.3635 23.6496 21.4853C23.8934 21.6635 23.959 21.7853 23.959 22.0478C23.959 22.2635 23.884 22.4322 23.7434 22.5635C23.6309 22.6666 23.4434 22.751 23.3215 22.751C23.209 22.751 22.9746 22.676 22.8059 22.5916C22.6371 22.5072 22.3371 22.4322 22.1309 22.4416C21.9246 22.4416 21.6152 22.5166 21.4465 22.6197C21.2871 22.7135 21.0621 22.9385 20.959 23.126C20.8559 23.3041 20.7715 23.5947 20.7715 23.7822C20.7621 23.9697 20.8559 24.2322 20.9777 24.4291C21.0996 24.5978 21.2965 24.8228 21.4277 24.9166C21.5684 25.0291 21.8215 25.0947 22.084 25.1041C22.3559 25.1041 22.5809 25.0385 22.7402 24.926C22.8715 24.8228 22.984 24.6728 22.9934 24.5885C23.0121 24.4666 22.9465 24.4385 22.6934 24.4385C22.4871 24.4385 22.2902 24.3635 22.1777 24.251C22.0746 24.1385 21.9902 23.951 21.9902 23.8291C21.9902 23.6978 22.0277 23.501 22.084 23.4072C22.1309 23.3041 22.309 23.1728 22.4777 23.1166C22.6465 23.0697 23.0309 23.0228 23.3215 23.0228C23.6215 23.0228 24.0152 23.0885 24.1934 23.1728C24.4184 23.2666 24.5402 23.3885 24.5777 23.5666C24.6152 23.7072 24.6152 24.0166 24.5777 24.251C24.5496 24.476 24.4559 24.8228 24.3809 25.0197C24.3059 25.2166 24.0809 25.5447 23.884 25.7603C23.6965 25.976 23.3496 26.2291 23.1152 26.3322C22.834 26.4541 22.4871 26.5103 22.084 26.5103C21.6059 26.501 21.3527 26.4447 20.9121 26.2291C20.5559 26.051 20.2277 25.8072 20.0215 25.5447C19.8434 25.3197 19.6184 24.9353 19.5246 24.6916C19.4402 24.4478 19.3652 24.0353 19.3652 23.7822C19.3652 23.5197 19.459 23.0697 19.5715 22.7697C19.6934 22.4416 19.9277 22.076 20.1527 21.851C20.359 21.6447 20.7059 21.401 20.9121 21.3072C21.1184 21.2041 21.4559 21.101 21.6621 21.0541C21.8684 21.0166 22.0746 20.9791 22.1309 20.9791ZM26.6309 21.026C26.734 21.0541 26.9121 21.176 27.0246 21.2978C27.2309 21.5228 27.2402 21.5791 27.2402 23.7541C27.2402 25.8447 27.2309 25.9947 27.0527 26.2385C26.9121 26.4353 26.7809 26.501 26.5371 26.501C26.3309 26.501 26.134 26.426 26.0215 26.3135C25.8434 26.1353 25.834 25.9947 25.834 23.8291C25.834 22.1978 25.8621 21.4666 25.9465 21.3353C26.0027 21.2322 26.1434 21.101 26.2465 21.0635C26.359 21.0166 26.5277 20.9978 26.6309 21.026ZM32.4434 21.026C32.5465 21.0541 32.7246 21.176 32.8371 21.2978C33.0434 21.5228 33.0527 21.5697 33.0527 26.0322L32.8184 26.2666C32.6965 26.3885 32.4809 26.501 32.3496 26.501C32.2184 26.501 32.0402 26.4541 31.9465 26.4166C31.8621 26.3697 31.4496 25.8447 31.0371 25.2447C30.6246 24.6447 30.2496 24.176 30.2121 24.2041C30.1746 24.2228 30.1465 24.6728 30.1465 25.1885C30.1465 25.9947 30.1184 26.1447 29.959 26.3135C29.8371 26.426 29.6402 26.501 29.4434 26.501C29.1902 26.501 29.0684 26.4353 28.9184 26.2385C28.7402 25.9947 28.7309 25.8447 28.7309 23.7822C28.7309 21.7103 28.7402 21.5603 28.9184 21.3166C29.059 21.1291 29.1996 21.0541 29.4152 21.0541C29.584 21.0541 29.7902 21.1103 29.8746 21.176C29.959 21.2416 30.3527 21.7666 30.7465 22.3478C31.1402 22.9291 31.4965 23.4072 31.5527 23.4072C31.609 23.4072 31.6465 23.0322 31.6465 22.4697C31.6465 21.9072 31.6934 21.4478 31.759 21.3353C31.8152 21.2322 31.9559 21.101 32.059 21.0635C32.1715 21.0166 32.3402 20.9978 32.4434 21.026ZM36.709 21.026C36.8402 21.0447 37.009 21.1385 37.0934 21.2322C37.1871 21.3166 37.6184 22.3478 38.059 23.5197C38.4996 24.6916 38.8652 25.7603 38.8652 25.8916C38.8652 26.0135 38.7809 26.201 38.6777 26.3135C38.5652 26.4166 38.359 26.501 38.1809 26.501C37.9934 26.501 37.8059 26.426 37.6934 26.3135C37.5246 26.1353 37.3934 26.1166 36.5684 26.1166C35.7434 26.1166 35.6027 26.1353 35.4434 26.3135C35.3215 26.4353 35.134 26.501 34.9277 26.501C34.7121 26.501 34.534 26.4353 34.4121 26.3041C34.309 26.1916 34.2246 25.9853 34.234 25.8541C34.2434 25.7135 34.5902 24.701 35.0121 23.5947C35.434 22.4791 35.8465 21.476 35.9215 21.3541C36.0059 21.2416 36.1559 21.101 36.2684 21.0541C36.3809 21.0072 36.5777 20.9978 36.709 21.026ZM36.1465 24.6447C36.1465 24.6822 36.334 24.7197 36.5684 24.7197C36.8027 24.7197 36.9902 24.701 36.9902 24.6916C36.9902 24.6822 36.9059 24.4572 36.8121 24.2041C36.709 23.9416 36.5965 23.7166 36.5496 23.7072C36.5027 23.6978 36.3996 23.8853 36.3059 24.1291C36.2215 24.3728 36.1465 24.6072 36.1465 24.6447ZM41.3121 21.0728C41.4621 21.1197 41.6215 21.2416 41.6777 21.3447C41.7246 21.4478 41.7715 22.3197 41.7715 25.1416H42.2777C42.6527 25.1416 42.8309 25.1885 42.9809 25.3291C43.1121 25.4478 43.1777 25.6197 43.1777 25.8447C43.1777 26.0228 43.0934 26.2478 43.009 26.3322C42.8684 26.4728 42.6809 26.501 41.7902 26.501C40.8152 26.501 40.7215 26.4822 40.5527 26.2853C40.3652 26.0885 40.3559 25.9478 40.3652 23.801C40.3652 22.5541 40.3934 21.4572 40.4309 21.3728C40.4684 21.2791 40.6184 21.1572 40.7684 21.101C40.9465 21.026 41.1246 21.0166 41.3121 21.0728ZM24.4465 32.8947C27.5965 32.9135 27.6059 32.9228 27.8215 33.1291C27.9434 33.251 28.0371 33.4572 28.0371 33.6166C28.0371 33.7572 27.9527 33.9728 27.8496 34.0853C27.6621 34.2822 27.6059 34.2822 24.334 34.2822C21.0527 34.2822 20.9965 34.2822 20.8184 34.0853C20.7152 33.9728 20.6309 33.7666 20.6309 33.626C20.6309 33.4853 20.6871 33.2978 20.7527 33.2041C20.8184 33.1103 20.9684 32.9978 21.0809 32.9603C21.1934 32.9135 22.7121 32.8853 24.4465 32.8947Z" fill="url(#paint0_linear_149_7488)"/>
</g>
<defs>
<linearGradient id="paint0_linear_149_7488" x1="24.3273" y1="2.25" x2="24.3273" y2="45.6635" gradientUnits="userSpaceOnUse">
<stop stop-color="#BD502B"/>
<stop offset="1" stop-color="#983F20"/>
</linearGradient>
<clipPath id="clip0_149_7488">
<rect width="48" height="48" fill="white" transform="translate(0.333984)"/>
</clipPath>
</defs>
</svg>
