<svg width="49" height="48" viewBox="0 0 49 48" fill="none" xmlns="http://www.w3.org/2000/svg">
<path fill-rule="evenodd" clip-rule="evenodd" d="M18.2793 0.00131018C19.1043 -0.00806482 19.3762 0.0294352 19.9668 0.22631C20.3512 0.35756 20.8574 0.591935 21.0918 0.741935C21.3262 0.891935 22.1512 1.66069 22.9293 2.44819C24.0355 3.56381 24.4199 4.01381 24.6543 4.49194C24.8324 4.84819 25.0199 5.42006 25.0949 5.85131C25.1793 6.32006 25.2074 6.84506 25.1699 7.25756C25.1324 7.61381 25.0293 8.25131 24.9262 8.66381C24.823 9.07631 24.6074 9.71381 24.4574 10.0701C24.298 10.4263 23.9793 11.0451 23.7449 11.4294C23.5105 11.8138 23.1262 12.3857 22.8824 12.6951C22.648 13.0044 22.1418 13.5763 21.748 13.9607C21.3637 14.3544 20.7918 14.8607 20.4824 15.0951C20.173 15.3388 19.6012 15.7232 19.2168 15.9576C18.8324 16.1919 18.1949 16.5201 17.8105 16.6794C17.4262 16.8388 16.7512 17.0544 16.3105 17.1576C15.7949 17.2888 15.2043 17.3451 14.623 17.3451C14.1168 17.3451 13.4887 17.2794 13.1699 17.1951C12.8605 17.1107 12.3918 16.9326 12.1387 16.7919C11.848 16.6419 11.0887 15.9669 10.1605 15.0388C8.83867 13.7263 8.6043 13.4451 8.3043 12.8357C8.0793 12.3669 7.9293 11.8794 7.8543 11.3826C7.76992 10.7919 7.76992 10.4357 7.8543 9.74194C7.91992 9.25444 8.0793 8.53256 8.21055 8.14819C8.3418 7.76381 8.57617 7.17319 8.74492 6.83569C8.9043 6.49819 9.28867 5.85131 9.59805 5.38256C9.94492 4.85756 10.5918 4.10756 11.2855 3.41381C11.9324 2.76694 12.7387 2.07319 13.1699 1.79194C13.5824 1.52006 14.2574 1.12631 14.6699 0.929435C15.0824 0.723185 15.8418 0.441935 16.3574 0.28256C17.1168 0.0575602 17.4824 0.0106852 18.2793 0.00131018ZM16.0293 1.87631C15.748 1.97944 15.298 2.17631 15.0449 2.30756C14.7824 2.43881 14.2762 2.74819 13.9199 2.99194C13.5637 3.23569 12.9074 3.77006 12.4762 4.17319C12.0449 4.57631 11.4262 5.27006 11.098 5.71069C10.7605 6.15131 10.3293 6.82631 10.1324 7.21069C9.93555 7.59506 9.68242 8.18569 9.5793 8.52319C9.4668 8.86069 9.33555 9.43256 9.26992 9.78881C9.21367 10.1451 9.18555 10.6794 9.21367 10.9607C9.25117 11.2419 9.34492 11.6919 9.4293 11.9451C9.5418 12.2638 9.75742 12.5826 10.1137 12.9388C10.4699 13.2951 10.7887 13.5107 11.1074 13.6232C11.3699 13.7076 11.8105 13.8013 12.0918 13.8388C12.373 13.8669 12.9074 13.8388 13.2637 13.7826C13.6199 13.7169 14.1918 13.5857 14.5293 13.4732C14.8668 13.3701 15.4574 13.1169 15.8418 12.9201C16.2262 12.7232 16.9012 12.2919 17.3418 11.9544C17.7824 11.6263 18.4762 11.0076 18.8793 10.5763C19.2824 10.1451 19.8262 9.47943 20.0699 9.11381C20.323 8.73881 20.6137 8.38256 20.7168 8.33569C20.8199 8.28881 20.9887 8.24194 21.0918 8.24194C21.1949 8.24194 21.3824 8.34506 21.5137 8.47631C21.6449 8.60756 21.748 8.80443 21.748 8.92631C21.748 9.03881 21.5137 9.48881 21.223 9.92944C20.9043 10.3982 20.248 11.1669 19.6012 11.8138C19.0012 12.4044 18.1762 13.1263 17.7637 13.3982C17.3512 13.6794 16.6949 14.0638 16.3105 14.2513C15.9262 14.4482 15.2887 14.7107 14.9043 14.8419C14.5199 14.9638 13.798 15.1326 13.3105 15.2076L12.4199 15.3388C13.4512 15.8357 13.6855 15.8826 14.4355 15.9201C15.1199 15.9388 15.5137 15.9013 16.123 15.7513C16.5637 15.6388 17.3043 15.3669 17.7637 15.1419C18.223 14.9169 18.9449 14.4763 19.3574 14.1763C19.7699 13.8669 20.398 13.3232 20.7543 12.9669C21.1105 12.6107 21.6355 12.0013 21.9262 11.6169C22.2168 11.2326 22.6199 10.5951 22.8168 10.2107C23.023 9.82631 23.2855 9.21694 23.4074 8.85131C23.5293 8.49506 23.6699 7.87631 23.7262 7.49194C23.7918 6.98569 23.7918 6.62006 23.7168 6.17944C23.6605 5.84194 23.5387 5.40131 23.4449 5.19506C23.3605 4.98881 23.248 4.79193 23.2012 4.75444C23.1449 4.71694 23.0793 4.97006 23.0324 5.36381C22.9855 5.73881 22.8918 6.14194 22.8262 6.27319C22.7699 6.40444 22.6387 6.53569 22.5543 6.58256C22.4699 6.62006 22.3105 6.64819 22.198 6.64819C22.0762 6.64819 21.898 6.59194 21.7949 6.51694C21.6262 6.39506 21.6074 6.27319 21.6074 5.03569C21.6074 3.78881 21.5887 3.65756 21.3637 3.17944C21.2324 2.89819 20.998 2.52319 20.848 2.34506C20.698 2.17631 20.323 1.91381 20.0137 1.75444C19.5449 1.52944 19.3012 1.47319 18.6074 1.43569C18.0637 1.41694 17.548 1.45444 17.1543 1.53881C16.8168 1.61381 16.3105 1.76381 16.0293 1.87631ZM30.8699 13.0326C31.2637 13.0232 31.9012 13.0794 32.2668 13.1544C32.6418 13.2294 33.2699 13.4076 33.6543 13.5388C34.0387 13.6794 34.5637 13.9044 34.8262 14.0357C35.0793 14.1576 35.6324 14.4951 36.0449 14.7669C36.4574 15.0388 37.0668 15.5076 37.4043 15.8076C37.7418 16.1076 38.3043 16.6701 38.6512 17.0544C39.0074 17.4388 39.4855 18.0576 39.7293 18.4138C39.973 18.7701 40.3293 19.3888 40.5262 19.7732C40.7137 20.1576 40.9855 20.8044 41.1074 21.2076C41.2387 21.6013 41.3887 22.2951 41.4543 22.7544C41.5387 23.3732 41.5387 23.7576 41.4543 24.3669C41.3699 24.9388 41.248 25.3607 40.9949 25.8669C40.7043 26.4763 40.4512 26.7669 39.148 28.0701C37.9199 29.2982 37.5262 29.6357 37.0293 29.8701C36.6918 30.0388 36.1855 30.2169 35.9043 30.2826C35.5855 30.3482 34.9762 30.3763 34.3105 30.3388C33.4949 30.3013 33.0355 30.2357 32.4355 30.0388C31.9949 29.8982 31.2824 29.5982 30.8418 29.3732C30.4012 29.1576 29.8105 28.8107 29.5199 28.6138C29.2293 28.4169 28.6668 27.9857 28.2637 27.6482C27.8699 27.3107 27.2043 26.6357 26.7918 26.1482C26.3793 25.6607 25.8449 24.9201 25.5918 24.5076C25.3387 24.0951 25.0012 23.4388 24.8418 23.0544C24.6824 22.6701 24.4762 22.0326 24.373 21.6482C24.2793 21.2638 24.1762 20.6919 24.1387 20.3826C24.1012 20.0732 24.1199 19.4826 24.1762 19.0701C24.2512 18.5263 24.3824 18.1138 24.6449 17.5701C24.973 16.8951 25.1793 16.6607 26.548 15.3107C27.7293 14.1388 28.198 13.7451 28.6387 13.5294C28.948 13.3888 29.4074 13.2107 29.6699 13.1544C29.923 13.0888 30.4668 13.0326 30.8605 13.0326H30.8699ZM29.0418 14.9263C28.798 15.0669 28.498 15.3201 28.3762 15.4888C28.2449 15.6482 28.048 16.0044 27.9355 16.2576C27.823 16.5201 27.7105 16.9982 27.6918 17.3357C27.6637 17.6732 27.6918 18.2451 27.748 18.6013C27.8137 18.9669 27.9543 19.5107 28.0574 19.8201C28.1605 20.1294 28.4137 20.7013 28.6105 21.0857C28.8074 21.4701 29.2387 22.1451 29.5762 22.5857C29.9043 23.0263 30.523 23.7107 30.9543 24.1232C31.3855 24.5263 32.0793 25.0794 32.4918 25.3607C32.9043 25.6326 33.5324 25.9888 33.898 26.1482C34.2637 26.3076 34.873 26.5326 35.2574 26.6451C35.7449 26.7763 36.2324 26.8419 36.8512 26.8419C37.6387 26.8419 37.8074 26.8138 38.3418 26.5701C38.7543 26.3826 39.073 26.1388 39.3543 25.8201C39.5793 25.5669 39.8418 25.1451 39.9262 24.8826C40.0387 24.5544 40.0762 24.1326 40.0762 23.4763C40.0668 22.7263 40.0105 22.3794 39.8043 21.7419C39.6637 21.3013 39.4199 20.6919 39.2605 20.3826C39.1105 20.0732 38.7637 19.5013 38.5105 19.1169C38.248 18.7326 37.6949 18.0576 37.273 17.6263C36.8605 17.1951 36.2043 16.6044 35.8199 16.3138C35.4355 16.0232 34.7324 15.5919 34.273 15.3482C33.8137 15.1138 33.1387 14.8232 32.773 14.7107C32.3699 14.5888 31.7699 14.4951 31.2262 14.4669C30.673 14.4482 30.1762 14.4763 29.9137 14.5513C29.6793 14.6169 29.2949 14.7857 29.0418 14.9263ZM25.8355 18.3201C25.7418 18.5263 25.6387 18.9482 25.5918 19.2576C25.5355 19.6232 25.5355 20.0732 25.6012 20.5232C25.648 20.9076 25.798 21.5451 25.9293 21.9294C26.0605 22.3138 26.3418 22.9513 26.548 23.3357C26.7543 23.7201 27.148 24.3294 27.4293 24.6951C27.7012 25.0607 28.3105 25.7169 28.7793 26.1763C29.248 26.6263 29.998 27.2357 30.448 27.5263C30.9074 27.8169 31.5918 28.2013 31.9762 28.3607C32.3605 28.5294 32.9699 28.7357 33.3355 28.8201C33.7855 28.9326 34.273 28.9701 34.8824 28.9419C35.623 28.9138 35.8668 28.8576 36.3355 28.6326L36.898 28.3701C36.0262 28.2388 35.3887 28.1076 34.9293 28.0044C34.3949 27.8732 33.6918 27.6013 33.0074 27.2638C32.4168 26.9638 31.573 26.4482 31.1324 26.1201C30.6918 25.7826 29.9512 25.1169 29.4918 24.6388C29.023 24.1513 28.3668 23.3357 28.0199 22.8201C27.673 22.3044 27.2605 21.5826 27.1012 21.2263C26.9418 20.8701 26.7168 20.2701 26.6137 19.9138C26.5012 19.5576 26.3699 18.9013 26.3043 18.4701C26.2199 17.8701 26.173 17.7107 26.0887 17.8138C26.0324 17.8888 25.9199 18.1138 25.8355 18.3201ZM24.523 30.6201C24.7762 30.6388 25.1887 30.7044 25.4324 30.7513C25.6855 30.7982 26.1262 30.9482 26.4168 31.0794C26.848 31.2763 27.298 31.6607 28.5355 32.8888C29.4074 33.7419 30.2137 34.6138 30.3355 34.8201C30.4574 35.0263 30.6262 35.3826 30.7105 35.6169C30.7949 35.8513 30.898 36.3294 30.9543 36.6951C31.0199 37.1451 31.0105 37.6138 30.9449 38.1951C30.8887 38.6638 30.7199 39.4044 30.5605 39.8638C30.4105 40.3138 30.1574 40.9419 29.998 41.2701C29.8293 41.5888 29.4637 42.2076 29.173 42.6482C28.8637 43.1169 28.198 43.8951 27.5699 44.5232C26.9793 45.1232 26.173 45.8169 25.7887 46.0794C25.4043 46.3419 24.8512 46.6794 24.5699 46.8388C24.2887 46.9888 23.7824 47.2232 23.4449 47.3544C23.1074 47.4857 22.4793 47.6919 22.0387 47.7951C21.523 47.9263 20.9418 47.9919 20.398 47.9919C19.7418 47.9919 19.3949 47.9451 18.8512 47.7576C18.4668 47.6263 17.9605 47.3919 17.7262 47.2419C17.4918 47.0919 16.648 46.3044 15.8418 45.4888C14.7824 44.4107 14.3137 43.8669 14.1355 43.4919C13.9949 43.2107 13.8168 42.6576 13.7324 42.2732C13.6293 41.8044 13.6012 41.3263 13.6293 40.8201C13.6574 40.4076 13.7512 39.7982 13.8355 39.4607C13.9199 39.1232 14.0699 38.6169 14.173 38.3357C14.2762 38.0544 14.5387 37.4826 14.7543 37.0701C14.9699 36.6576 15.3918 35.9826 15.7012 35.5701C16.0012 35.1576 16.6574 34.4169 17.1543 33.9294C17.6605 33.4232 18.4668 32.7576 18.9918 32.4107C19.5074 32.0638 20.2668 31.6326 20.6793 31.4451C21.0918 31.2576 21.748 31.0138 22.1324 30.9107C22.5168 30.8076 23.1074 30.6857 23.4449 30.6482C23.7824 30.6107 24.2605 30.6013 24.523 30.6201ZM22.2262 32.3544C21.8887 32.4576 21.3168 32.7013 20.9605 32.8794C20.5949 33.0576 20.0512 33.3763 19.7418 33.5919C19.4324 33.7982 18.8793 34.2294 18.523 34.5388C18.1574 34.8576 17.5762 35.4669 17.2293 35.9076C16.8824 36.3388 16.4137 37.0138 16.1887 37.3982C15.9637 37.7826 15.6637 38.3919 15.523 38.7576C15.3824 39.1232 15.1949 39.7982 15.1105 40.2576C14.9887 40.9607 14.9887 41.2138 15.0824 41.7857C15.148 42.1513 15.2793 42.6294 15.3824 42.8357C15.4855 43.0419 15.598 43.2107 15.6355 43.2107C15.6824 43.2107 15.7387 42.9294 15.7762 42.5826C15.8137 42.2263 15.9355 41.6263 16.0387 41.2419C16.1512 40.8576 16.4418 40.1169 16.6855 39.6013C16.9387 39.0857 17.4074 38.2888 17.7355 37.8294C18.0637 37.3701 18.673 36.6576 19.0855 36.2357C19.498 35.8138 20.1074 35.2607 20.4449 35.0076C20.7824 34.7544 21.3168 34.3794 21.6355 34.1919C21.973 33.9857 22.348 33.8357 22.5074 33.8357C22.7043 33.8357 22.8449 33.9107 22.9762 34.0982C23.0887 34.2388 23.173 34.4451 23.1637 34.5669C23.1637 34.6794 23.0605 34.8669 22.9387 34.9888C22.8168 35.1013 22.4137 35.3826 22.0387 35.6169C21.6543 35.8513 20.923 36.4419 20.4074 36.9388C19.8824 37.4357 19.2168 38.1763 18.9262 38.5794C18.6355 38.9919 18.2324 39.6576 18.0262 40.0701C17.8199 40.4826 17.5574 41.1107 17.4449 41.4763C17.3324 41.8419 17.2199 42.5076 17.1918 42.9763C17.1543 43.6232 17.173 43.9513 17.3043 44.3826C17.398 44.6919 17.5668 45.1044 17.6887 45.3013C17.8105 45.4888 18.0543 45.7513 18.2137 45.8732C18.3824 46.0044 18.7293 46.2013 18.9918 46.3232C19.3855 46.5013 19.6199 46.5388 20.4449 46.5388C21.2137 46.5388 21.5793 46.4919 22.1324 46.3138C22.5168 46.1919 23.1074 45.9763 23.4449 45.8169C23.7824 45.6669 24.4105 45.3013 24.8512 45.0107C25.2918 44.7201 26.0699 44.0638 26.5855 43.5388C27.1012 43.0232 27.7199 42.3107 27.9543 41.9451C28.198 41.5794 28.5449 40.9982 28.723 40.6326C28.9012 40.2669 29.1355 39.7232 29.2387 39.4138C29.3418 39.1044 29.473 38.5232 29.5293 38.1294C29.6043 37.6232 29.6043 37.2107 29.5387 36.7888C29.4824 36.4513 29.3418 35.9826 29.2199 35.7388C29.098 35.4857 28.8543 35.1576 28.6762 34.9888C28.5074 34.8201 28.1137 34.5763 27.8043 34.4263C27.2887 34.1919 27.1387 34.1732 26.1543 34.1638C25.1887 34.1638 25.0387 34.1451 24.8605 33.9763C24.7387 33.8638 24.6543 33.6763 24.6543 33.5076C24.6543 33.3388 24.7387 33.1513 24.8605 33.0388C24.9918 32.9169 25.3012 32.8138 25.7324 32.7482L26.398 32.6451C25.3387 32.1388 25.1605 32.1013 24.2418 32.0826C23.6699 32.0732 23.1262 32.0919 23.023 32.1107C22.9199 32.1388 22.5637 32.2513 22.2262 32.3544ZM18.6355 3.74194C18.7574 3.74194 18.9543 3.84506 19.0855 3.97631C19.2168 4.10756 19.3199 4.30444 19.3199 4.42631C19.3199 4.53881 19.2543 4.72631 19.1793 4.84819C19.0668 5.01693 19.0574 5.12944 19.1418 5.45756C19.198 5.67318 19.2168 6.03881 19.1887 6.27319C19.1605 6.50756 18.9918 6.92944 18.823 7.21069C18.6355 7.52944 18.4293 7.75444 18.2605 7.82006C18.0918 7.88569 17.923 7.88569 17.7449 7.82006C17.6043 7.76381 17.4355 7.59506 17.3605 7.44506C17.248 7.19194 17.248 7.13569 17.398 6.88256C17.4918 6.72319 17.6324 6.47944 17.7074 6.32006C17.7824 6.16069 17.8199 5.94506 17.7824 5.83256C17.7543 5.71069 17.6605 5.55131 17.5855 5.47631C17.5105 5.40131 17.3512 5.30756 17.2293 5.27944C17.1168 5.25131 16.873 5.28881 16.6949 5.37319C16.5074 5.44819 16.2637 5.65444 16.1512 5.82318C16.0387 6.00131 15.9449 6.28256 15.9449 6.48881C15.9449 6.67631 16.0293 7.14506 16.1324 7.52006C16.2355 7.88568 16.3199 8.44819 16.3199 8.75756C16.3199 9.06694 16.2637 9.47006 16.1887 9.64819C16.1137 9.82631 15.9262 10.1544 15.7668 10.3701C15.6074 10.5857 15.2793 10.8763 15.0355 11.0169C14.7824 11.1669 14.4168 11.3169 14.2105 11.3544C13.9855 11.4013 13.6387 11.4013 13.3387 11.3357C12.9449 11.2607 12.8137 11.2701 12.6355 11.3826C12.523 11.4576 12.3355 11.5232 12.2137 11.5232C12.1012 11.5232 11.9043 11.4201 11.773 11.2888C11.6418 11.1576 11.5387 10.9607 11.5387 10.8482C11.5387 10.7263 11.6043 10.5388 11.6793 10.4263C11.7918 10.2482 11.8012 10.1169 11.7262 9.74194C11.6605 9.42319 11.6605 9.13256 11.7355 8.83256C11.7824 8.57944 11.9324 8.20444 12.0637 7.98881C12.1855 7.76381 12.373 7.54819 12.4762 7.49194C12.5793 7.44506 12.7855 7.39819 12.9449 7.39819C13.1418 7.39819 13.2824 7.47319 13.4137 7.66069C13.5262 7.80131 13.6105 7.97944 13.6012 8.05444C13.6012 8.12944 13.4887 8.36381 13.348 8.57006C13.2074 8.77631 13.0949 9.07631 13.0855 9.23569C13.0855 9.41381 13.1605 9.62006 13.273 9.73256C13.3762 9.84506 13.5543 9.94819 13.6668 9.97631C13.7887 10.0044 14.023 9.95756 14.1824 9.88256C14.3512 9.80756 14.5855 9.60131 14.698 9.43256C14.8387 9.23569 14.9137 8.99194 14.9137 8.71069C14.9137 8.47631 14.848 8.10131 14.773 7.86694C14.6887 7.63256 14.5949 7.17319 14.5668 6.83569C14.5293 6.47006 14.5574 6.05756 14.623 5.80444C14.6887 5.57006 14.8855 5.18569 15.0637 4.94194C15.2512 4.67944 15.5887 4.37944 15.8699 4.21069C16.1418 4.06069 16.5543 3.91069 16.7887 3.87319C17.023 3.84506 17.3887 3.86381 17.6043 3.92006C17.9324 4.00444 18.0449 3.99506 18.2137 3.88256C18.3355 3.80756 18.523 3.74194 18.6355 3.74194ZM30.6543 16.7732C30.7855 16.7732 30.9918 16.8388 31.1137 16.9138C31.2824 17.0263 31.3949 17.0357 31.723 16.9513C31.9387 16.8951 32.2949 16.8763 32.5199 16.9044C32.7355 16.9326 33.1293 17.0638 33.3824 17.1951C33.6449 17.3263 33.9168 17.5232 33.9918 17.6357C34.0668 17.7576 34.1324 17.9544 34.1418 18.0857C34.1418 18.2169 34.0668 18.4138 33.973 18.5357C33.8699 18.6669 33.7012 18.7607 33.523 18.7607C33.3637 18.7701 33.0824 18.6669 32.8668 18.5263C32.6605 18.3857 32.3887 18.2732 32.2574 18.2732C32.1262 18.2638 31.9199 18.3482 31.7887 18.4513C31.6012 18.5919 31.5543 18.7138 31.5543 19.0232C31.5543 19.3607 31.6105 19.4638 31.9574 19.7826C32.2668 20.0732 32.4262 20.1482 32.7074 20.1482C32.8949 20.1482 33.3449 20.0638 33.7105 19.9607C34.0762 19.8576 34.6387 19.7638 34.9762 19.7638C35.3418 19.7544 35.7355 19.8201 35.9605 19.9138C36.1668 19.9982 36.5043 20.2044 36.7012 20.3638C36.898 20.5326 37.1605 20.8326 37.2824 21.0388C37.3949 21.2451 37.5355 21.6013 37.5918 21.8357C37.648 22.1076 37.648 22.4357 37.5918 22.7451C37.5262 23.1388 37.5355 23.2888 37.648 23.4482C37.723 23.5701 37.7887 23.7576 37.7887 23.8701C37.7887 23.9919 37.6855 24.1888 37.5543 24.3201C37.4324 24.4513 37.2355 24.5544 37.1137 24.5544C36.9918 24.5638 36.7949 24.4794 36.6637 24.3763C36.4855 24.2357 36.3918 24.2169 36.2418 24.2919C36.1387 24.3482 35.8199 24.3951 35.5387 24.3951C35.2199 24.3951 34.8543 24.3201 34.5824 24.1888C34.3293 24.0857 34.0293 23.8888 33.898 23.7576C33.7387 23.5982 33.6637 23.4201 33.6637 23.1951C33.6637 22.9419 33.7293 22.8201 33.9262 22.6794C34.0668 22.5669 34.2449 22.4826 34.3199 22.4826C34.3949 22.4826 34.6293 22.5951 34.8355 22.7357C35.0418 22.8669 35.3418 22.9888 35.5012 22.9982C35.6887 22.9982 35.8762 22.9326 35.998 22.8201C36.1105 22.7169 36.2137 22.5388 36.2418 22.4169C36.2699 22.3044 36.2137 22.0607 36.1293 21.8732C36.0355 21.6857 35.8293 21.4513 35.6793 21.3576C35.5199 21.2638 35.2199 21.1794 35.0043 21.1794C34.7793 21.1794 34.2918 21.2638 33.9262 21.3669C33.5512 21.4701 33.0074 21.5544 32.7262 21.5544C32.4074 21.5544 32.0512 21.4794 31.7887 21.3576C31.5543 21.2544 31.2168 21.0482 31.0387 20.8982C30.8605 20.7576 30.598 20.4388 30.4574 20.1857C30.3262 19.9326 30.1855 19.5388 30.148 19.3044C30.1105 19.0701 30.1293 18.7044 30.1855 18.4794C30.2699 18.1607 30.2605 18.0482 30.148 17.8701C30.073 17.7576 29.998 17.5607 29.9887 17.4388C29.9793 17.2982 30.0637 17.1201 30.1949 16.9888C30.3168 16.8669 30.523 16.7732 30.6543 16.7732ZM26.5668 36.4607C26.6512 36.4607 26.7918 36.4888 26.8762 36.5263C26.9605 36.5732 27.0918 36.7138 27.1574 36.8544C27.2324 37.0044 27.2699 37.2107 27.2418 37.3232C27.2137 37.4451 27.1293 37.5951 27.0543 37.6513C26.9512 37.7451 26.9324 37.8294 27.0074 38.0076C27.0637 38.1388 27.1012 38.4763 27.1012 38.7576C27.1012 39.0388 27.0355 39.4326 26.9512 39.6201C26.8762 39.8169 26.6793 40.1169 26.5105 40.2857C26.2949 40.5013 26.1262 40.5857 25.9105 40.5857C25.7137 40.5857 25.5355 40.5107 25.4137 40.3701C25.3105 40.2576 25.2262 40.0607 25.2262 39.9294C25.2262 39.7982 25.3293 39.5451 25.4605 39.3669C25.6012 39.1701 25.6949 38.9076 25.6949 38.7107C25.7043 38.5138 25.6387 38.3169 25.5355 38.2326C25.4418 38.1482 25.273 38.0544 25.1605 38.0169C25.0387 37.9888 24.8043 38.0169 24.6449 38.0826C24.4762 38.1482 24.2512 38.3357 24.1387 38.4857C24.0262 38.6357 23.9137 38.8607 23.8855 38.9919C23.848 39.1232 23.923 39.6482 24.0637 40.2107C24.2324 40.9044 24.298 41.3451 24.2605 41.7107C24.2418 41.9919 24.1293 42.3951 24.0262 42.6013C23.923 42.8076 23.6887 43.1357 23.5012 43.3232C23.3137 43.5201 23.0043 43.7638 22.8168 43.8576C22.6199 43.9513 22.273 44.0638 22.0387 44.1013C21.8043 44.1388 21.4387 44.1201 21.223 44.0638C20.8949 43.9794 20.7824 43.9888 20.6137 44.1013C20.4918 44.1763 20.2949 44.2419 20.1637 44.2419C20.0324 44.2419 19.8355 44.1482 19.7137 44.0263C19.5824 43.9044 19.5074 43.7169 19.5074 43.5388C19.5074 43.3888 19.573 43.1919 19.6574 43.1169C19.7793 42.9951 19.7887 42.9201 19.6855 42.6013C19.6199 42.3763 19.6012 42.0201 19.6387 41.7107C19.6668 41.4201 19.798 41.0169 19.9293 40.7919C20.0605 40.5763 20.2574 40.3326 20.3793 40.2576C20.4918 40.1826 20.698 40.1169 20.848 40.1169C20.9887 40.1169 21.1855 40.2013 21.2887 40.3044C21.3918 40.4076 21.4762 40.6138 21.4762 40.7732C21.4762 40.9232 21.373 41.2138 21.2418 41.4013C21.1105 41.5982 20.998 41.8607 20.998 41.9919C20.998 42.1232 21.0824 42.3294 21.1855 42.4607C21.3262 42.6388 21.448 42.6951 21.7387 42.6951C22.0105 42.6951 22.1887 42.6294 22.3668 42.4607C22.5074 42.3294 22.6762 42.1138 22.7512 41.9638C22.8262 41.8232 22.8824 41.5982 22.8824 41.4482C22.8824 41.3076 22.798 40.9044 22.6855 40.5388C22.5824 40.1732 22.4887 39.6107 22.4793 39.2732C22.4793 38.8513 22.5262 38.5326 22.6574 38.2419C22.7605 38.0076 22.9949 37.6513 23.1824 37.4451C23.3605 37.2388 23.698 36.9763 23.923 36.8732C24.148 36.7607 24.4855 36.6482 24.6637 36.6107C24.8418 36.5826 25.2168 36.5919 25.4887 36.6482C25.8824 36.7232 26.0137 36.7138 26.1918 36.6013C26.3043 36.5263 26.473 36.4607 26.5668 36.4607Z" fill="url(#paint0_linear_149_7494)"/>
<defs>
<linearGradient id="paint0_linear_149_7494" x1="24.6543" y1="0" x2="24.6543" y2="47.9919" gradientUnits="userSpaceOnUse">
<stop stop-color="#BD502B"/>
<stop offset="1" stop-color="#983F20"/>
</linearGradient>
</defs>
</svg>
