<svg width="40" height="40" viewBox="0 0 40 40" fill="none" xmlns="http://www.w3.org/2000/svg">
<rect width="40" height="40" rx="20" fill="#0088CC"/>
<path d="M19.7093 15.6723C24.0124 14.027 27.6581 12.6348 27.8128 12.5785C27.9675 12.5258 28.1432 12.4801 28.1995 12.4766C28.2557 12.4766 28.3682 12.5012 28.4456 12.5328C28.5229 12.5645 28.6354 12.6242 28.6917 12.6664C28.7479 12.7086 28.8358 12.8246 28.885 12.9195C28.9554 13.0672 28.9694 13.141 28.9694 13.4258C28.9694 13.7316 28.8604 14.273 27.5913 20.1934C26.8354 23.7336 26.1921 26.7043 26.1639 26.8027C26.1358 26.8977 26.0585 27.0559 25.9917 27.1543C25.9073 27.2809 25.8194 27.3582 25.6823 27.425C25.5768 27.4777 25.4538 27.5234 25.4046 27.5234C25.3554 27.5234 25.2288 27.4953 25.1233 27.4602C25.0179 27.4215 24.8737 27.3652 24.8069 27.3301C24.7401 27.2949 23.7663 26.5953 22.6448 25.7762C21.5128 24.9465 20.5847 24.2926 20.5636 24.3031C20.5389 24.3137 20.0362 24.7883 19.4456 25.3543C18.855 25.9168 18.3065 26.416 18.2222 26.4582C18.1413 26.5039 18.0042 26.5496 17.7581 26.5813L17.9022 24.5105C17.9831 23.375 18.0534 22.4258 18.0604 22.4047C18.0675 22.3836 19.8077 20.8121 21.9241 18.9102C24.0405 17.0117 25.7948 15.4191 25.8194 15.3734C25.8546 15.3031 25.8511 15.2785 25.8089 15.2363C25.7807 15.2082 25.7139 15.1836 25.6612 15.1836C25.605 15.1836 25.5065 15.2012 25.4397 15.2258C25.3729 15.2469 23.1581 16.618 15.719 21.2691L13.6096 20.6117C12.4495 20.2531 11.4546 19.9332 11.3948 19.9016C11.3386 19.8734 11.2436 19.8137 11.1839 19.7715C11.1276 19.7258 11.0573 19.6449 11.0327 19.5922C11.0011 19.5289 10.994 19.4375 11.0046 19.3602C11.0186 19.2688 11.0714 19.1809 11.1663 19.0859C11.2436 19.0086 11.437 18.882 11.5952 18.8047C11.7569 18.7309 15.4061 17.3211 19.7093 15.6723Z" fill="white"/>
</svg>
