<svg width="40" height="40" viewBox="0 0 40 40" fill="none" xmlns="http://www.w3.org/2000/svg">
<rect width="40" height="40" rx="20" fill="#59CE72"/>
<g clip-path="url(#clip0_149_7972)">
<path fill-rule="evenodd" clip-rule="evenodd" d="M19.9473 11.5629C20.45 11.5594 20.7277 11.577 21.0723 11.6262C21.3219 11.6649 21.6488 11.7211 21.793 11.7528C21.9371 11.7844 22.1656 11.8407 22.3027 11.8793C22.4398 11.918 22.6824 11.9989 22.8477 12.0586C23.0129 12.1184 23.2801 12.2274 23.4453 12.2977C23.6105 12.368 23.8953 12.5122 24.0781 12.6141C24.2609 12.7161 24.5633 12.9024 24.7461 13.0289C24.9289 13.1555 25.1996 13.3559 25.3438 13.4719C25.4879 13.5914 25.7656 13.8446 25.959 14.0379C26.1523 14.2313 26.4195 14.5231 26.5496 14.6883C26.6832 14.8536 26.8906 15.1383 27.0137 15.3211C27.1367 15.5039 27.3195 15.8063 27.418 15.9891C27.5164 16.1719 27.6676 16.4813 27.752 16.6747C27.8328 16.868 27.9664 17.2231 28.0437 17.4657C28.1211 17.7082 28.216 18.0704 28.2582 18.2743C28.2969 18.4782 28.3566 18.8157 28.3848 19.0301C28.4129 19.2446 28.4375 19.67 28.4375 19.9793C28.4375 20.2887 28.4129 20.7247 28.3848 20.9461C28.3566 21.1676 28.3004 21.5157 28.2582 21.7196C28.216 21.9235 28.1211 22.2856 28.0437 22.5282C27.9664 22.7707 27.8328 23.1258 27.752 23.3192C27.6676 23.5125 27.5164 23.8219 27.418 24.0047C27.3195 24.1875 27.1367 24.4899 27.0137 24.6727C26.8906 24.8555 26.6832 25.1403 26.5496 25.3055C26.4195 25.4707 26.1523 25.7625 25.959 25.9559C25.7656 26.1493 25.4879 26.4024 25.3438 26.5219C25.1996 26.6379 24.9289 26.8383 24.7461 26.9649C24.5633 27.0914 24.2398 27.2883 24.0254 27.4043C23.8109 27.5204 23.5051 27.6715 23.3398 27.7418C23.1746 27.8122 22.932 27.9071 22.7949 27.9563C22.6578 28.002 22.4398 28.0758 22.3027 28.1145C22.1656 28.1532 21.9371 28.2094 21.793 28.2411C21.6488 28.2727 21.3219 28.3289 21.0723 28.3676C20.7523 28.4133 20.4324 28.4344 20 28.4344C19.5676 28.4344 19.2477 28.4133 18.9277 28.3676C18.6746 28.3289 18.3195 28.2657 18.1367 28.2235C17.9539 28.1848 17.5813 28.0758 17.3105 27.9844C17.0398 27.8965 16.5898 27.7067 16.3086 27.5696C16.0273 27.4289 15.7109 27.2602 15.4121 27.0739L13.9004 27.7207C13.0672 28.0758 12.3746 28.3817 12.3535 28.4028C12.3359 28.4204 12.234 28.4344 12.125 28.4344C11.9598 28.4344 11.9141 28.4204 11.7945 28.3219C11.7172 28.2586 11.6363 28.1532 11.6082 28.0899C11.5836 28.0301 11.5625 27.9247 11.5625 27.8614C11.566 27.7946 11.8367 27.1125 12.923 24.5848L12.7824 24.3563C12.7051 24.2297 12.5328 23.9063 12.4027 23.6356C12.2691 23.3649 12.0898 22.9289 12.0055 22.6688C11.9176 22.4086 11.8121 22.043 11.7734 21.8602C11.7313 21.6774 11.668 21.3188 11.6328 21.0692C11.5871 20.7668 11.5625 20.4153 11.5625 20.0321C11.5625 19.7051 11.5871 19.2692 11.6188 19.0301C11.6469 18.7981 11.7102 18.436 11.7559 18.2215C11.8016 18.0071 11.8965 17.652 11.9668 17.4305C12.0406 17.209 12.1672 16.868 12.248 16.6747C12.3324 16.4813 12.4836 16.1719 12.582 15.9891C12.6805 15.8063 12.8703 15.4969 12.9969 15.3036C13.127 15.1102 13.3484 14.8114 13.4926 14.6356C13.6367 14.4598 13.9004 14.1786 14.0762 14.0028C14.252 13.827 14.5297 13.5774 14.6914 13.4473C14.8566 13.3137 15.1414 13.1063 15.3242 12.9832C15.507 12.8602 15.8234 12.6704 16.0273 12.5614C16.2312 12.4559 16.5406 12.3047 16.7129 12.2309C16.8852 12.1571 17.2086 12.0375 17.423 11.9672C17.641 11.8969 17.968 11.809 18.1437 11.7668C18.323 11.7282 18.6535 11.6684 18.875 11.6332C19.1492 11.5875 19.4973 11.5664 19.9473 11.5629ZM16.8008 15.8239C16.6566 15.9469 16.4141 16.1789 16.2629 16.3442C16.1082 16.5059 15.9465 16.7168 15.9008 16.8153C15.8551 16.9102 15.7918 17.086 15.7637 17.202C15.732 17.318 15.6969 17.5641 15.6863 17.7469C15.6723 17.9754 15.6863 18.1829 15.7215 18.3973C15.7531 18.5696 15.8199 18.8403 15.8691 18.995C15.9219 19.1497 16.0273 19.4204 16.1117 19.5926C16.1926 19.7649 16.3508 20.0532 16.4562 20.2254C16.5652 20.3977 16.7727 20.7 16.9203 20.8934C17.068 21.0868 17.3598 21.4313 17.5672 21.6598C17.7746 21.8848 18.1297 22.2434 18.3582 22.4508C18.5902 22.6582 18.9559 22.9606 19.1738 23.1258C19.3918 23.2911 19.7434 23.5231 19.9508 23.6426C20.1617 23.7657 20.4676 23.9204 20.6328 23.9907C20.798 24.0575 21.0828 24.1559 21.2656 24.2051C21.5434 24.2825 21.6805 24.2965 22.0742 24.3C22.4293 24.3036 22.6086 24.286 22.7773 24.2403C22.9039 24.2051 23.0938 24.1348 23.1992 24.0856C23.3223 24.0223 23.5262 23.8606 23.7582 23.6356C23.9586 23.4422 24.1871 23.1961 24.268 23.0907C24.3523 22.9817 24.4297 22.8375 24.4437 22.7567C24.4578 22.6723 24.4543 22.5528 24.4297 22.4579C24.3945 22.3207 24.3102 22.2188 23.7688 21.6774C23.259 21.1711 23.1219 21.0516 23.0059 21.02C22.9145 20.9954 22.816 20.9954 22.7246 21.0164C22.6121 21.0446 22.5066 21.1254 22.2043 21.4278L21.8281 21.8075C21.5117 21.7969 21.3254 21.7582 21.1953 21.709C21.0688 21.6633 20.8473 21.5579 20.7031 21.4735C20.559 21.3891 20.2883 21.1957 20.1055 21.0481C19.9227 20.9004 19.6203 20.6227 19.434 20.4329C19.2477 20.2395 18.998 19.9582 18.875 19.8036C18.7555 19.6489 18.5902 19.4098 18.5129 19.2762C18.4355 19.1391 18.3336 18.9282 18.2879 18.8016C18.2387 18.6715 18.2 18.4852 18.1965 18.3727L18.1895 18.1688C18.8539 17.5008 18.9488 17.3813 18.977 17.2723C19.0016 17.1739 19.0016 17.0895 18.977 16.9911C18.9453 16.8786 18.8223 16.7344 18.3547 16.2598C18.0312 15.9329 17.7254 15.6446 17.6727 15.6164C17.6164 15.5883 17.5074 15.5602 17.4266 15.5497C17.3422 15.5426 17.2297 15.5497 17.1699 15.5672C17.1102 15.5848 16.9449 15.7008 16.8008 15.8239Z" fill="white"/>
</g>
<defs>
<clipPath id="clip0_149_7972">
<rect width="18" height="18" fill="white" transform="translate(11 11)"/>
</clipPath>
</defs>
</svg>
