<svg width="18" height="18" viewBox="0 0 18 18" fill="none" xmlns="http://www.w3.org/2000/svg">
<path d="M13.5607 9.31491L8.92573 13.9574C8.31809 14.4974 7.52709 14.7849 6.71452 14.761C5.90195 14.737 5.12923 14.4036 4.55441 13.8287C3.97959 13.2539 3.64611 12.4812 3.62219 11.6686C3.59827 10.8561 3.88572 10.0651 4.42573 9.45741L10.4257 3.45742C10.7839 3.11714 11.2592 2.92741 11.7532 2.92741C12.2473 2.92741 12.7225 3.11714 13.0807 3.45742C13.4297 3.81111 13.6254 4.28802 13.6254 4.78491C13.6254 5.28181 13.4297 5.75872 13.0807 6.11241L7.90573 11.2799C7.85451 11.3351 7.79294 11.3796 7.72451 11.411C7.65609 11.4423 7.58216 11.4599 7.50694 11.4627C7.43173 11.4655 7.3567 11.4534 7.28614 11.4272C7.21559 11.401 7.15089 11.3611 7.09573 11.3099C7.04058 11.2587 6.99605 11.1971 6.96469 11.1287C6.93333 11.0603 6.91576 10.9863 6.91297 10.9111C6.91019 10.8359 6.92224 10.7609 6.94845 10.6903C6.97466 10.6198 7.01451 10.5551 7.06573 10.4999L10.9132 6.65991C11.0545 6.51869 11.1338 6.32714 11.1338 6.12742C11.1338 5.92769 11.0545 5.73614 10.9132 5.59491C10.772 5.45369 10.5805 5.37435 10.3807 5.37435C10.181 5.37435 9.98946 5.45369 9.84823 5.59491L6.00073 9.44991C5.80821 9.64094 5.65541 9.86819 5.55113 10.1186C5.44685 10.3689 5.39317 10.6375 5.39317 10.9087C5.39317 11.1799 5.44685 11.4484 5.55113 11.6988C5.65541 11.9491 5.80821 12.1764 6.00073 12.3674C6.39401 12.742 6.91634 12.951 7.45948 12.951C8.00262 12.951 8.52495 12.742 8.91823 12.3674L14.0857 7.19242C14.6819 6.55263 15.0064 5.70642 14.991 4.83206C14.9756 3.95771 14.6214 3.12348 14.003 2.50512C13.3847 1.88676 12.5504 1.53255 11.6761 1.51713C10.8017 1.5017 9.95552 1.82625 9.31573 2.42241L3.31573 8.42241C2.50663 9.31854 2.0745 10.4923 2.10938 11.6991C2.14426 12.906 2.64346 14.0528 3.50296 14.9007C4.36246 15.7486 5.51599 16.2322 6.72319 16.2507C7.9304 16.2692 9.09818 15.8211 9.98323 14.9999L14.6257 10.3649C14.6957 10.295 14.7511 10.212 14.789 10.1206C14.8268 10.0292 14.8463 9.93131 14.8463 9.83241C14.8463 9.73352 14.8268 9.63559 14.789 9.54423C14.7511 9.45286 14.6957 9.36984 14.6257 9.29991C14.5558 9.22999 14.4728 9.17452 14.3814 9.13667C14.2901 9.09882 14.1921 9.07935 14.0932 9.07935C13.9943 9.07935 13.8964 9.09882 13.805 9.13667C13.7137 9.17452 13.6307 9.22999 13.5607 9.29991V9.31491Z" fill="#983F20"/>
</svg>
