<svg width="18" height="16" viewBox="0 0 18 16" fill="none" xmlns="http://www.w3.org/2000/svg">
<path d="M15.7996 1.84167C14.9148 0.95668 13.7418 0.418613 12.4939 0.325325C11.246 0.232038 10.0061 0.589726 8.99958 1.33334C7.93929 0.544705 6.61957 0.1871 5.30618 0.332539C3.99279 0.477977 2.78328 1.11566 1.92122 2.11716C1.05917 3.11867 0.608597 4.40961 0.660246 5.73002C0.711895 7.05043 1.26193 8.30223 2.19958 9.23334L8.40791 15.4417C8.48538 15.5198 8.57755 15.5818 8.6791 15.6241C8.78065 15.6664 8.88957 15.6882 8.99958 15.6882C9.10959 15.6882 9.21851 15.6664 9.32006 15.6241C9.42161 15.5818 9.51378 15.5198 9.59125 15.4417L15.7996 9.23334C16.2851 8.74811 16.6703 8.17196 16.9331 7.53781C17.1959 6.90367 17.3311 6.22395 17.3311 5.53751C17.3311 4.85106 17.1959 4.17135 16.9331 3.5372C16.6703 2.90305 16.2851 2.3269 15.7996 1.84167ZM14.6246 8.05834L8.99958 13.675L3.37458 8.05834C2.87889 7.56059 2.54122 6.92755 2.40394 6.23862C2.26665 5.5497 2.33585 4.83558 2.60287 4.18584C2.86989 3.53609 3.32283 2.97967 3.90487 2.58636C4.48691 2.19305 5.17213 1.98037 5.87458 1.97501C6.81301 1.97731 7.71216 2.35195 8.37458 3.01667C8.45205 3.09478 8.54422 3.15678 8.64576 3.19908C8.74731 3.24139 8.85624 3.26317 8.96625 3.26317C9.07626 3.26317 9.18518 3.24139 9.28673 3.19908C9.38828 3.15678 9.48044 3.09478 9.55791 3.01667C10.2398 2.42574 11.1208 2.11596 12.0225 2.15003C12.9242 2.18409 13.7793 2.55946 14.4147 3.20016C15.0501 3.84087 15.4184 4.69904 15.445 5.601C15.4716 6.50296 15.1545 7.38133 14.5579 8.05834H14.6246Z" fill="#CCCCCC"/>
</svg>
