<svg width="20" height="20" viewBox="0 0 20 20" fill="none" xmlns="http://www.w3.org/2000/svg">
<path d="M10.0007 1.66669C8.23254 1.66669 6.53685 2.36907 5.28661 3.61931C4.03636 4.86955 3.33398 6.56524 3.33398 8.33335C3.33398 12.8334 9.20898 17.9167 9.45898 18.1334C9.60993 18.2625 9.80202 18.3334 10.0007 18.3334C10.1993 18.3334 10.3914 18.2625 10.5423 18.1334C10.834 17.9167 16.6673 12.8334 16.6673 8.33335C16.6673 6.56524 15.9649 4.86955 14.7147 3.61931C13.4645 2.36907 11.7688 1.66669 10.0007 1.66669ZM10.0007 16.375C8.22565 14.7084 5.00065 11.1167 5.00065 8.33335C5.00065 7.00727 5.52744 5.7355 6.46512 4.79782C7.4028 3.86014 8.67457 3.33335 10.0007 3.33335C11.3267 3.33335 12.5985 3.86014 13.5362 4.79782C14.4739 5.7355 15.0007 7.00727 15.0007 8.33335C15.0007 11.1167 11.7757 14.7167 10.0007 16.375ZM10.0007 5.00002C9.34138 5.00002 8.69691 5.19552 8.14875 5.56179C7.60059 5.92806 7.17334 6.44866 6.92105 7.05774C6.66876 7.66683 6.60275 8.33705 6.73137 8.98365C6.85998 9.63026 7.17745 10.2242 7.64363 10.6904C8.1098 11.1566 8.70375 11.474 9.35035 11.6026C9.99695 11.7313 10.6672 11.6652 11.2763 11.413C11.8853 11.1607 12.4059 10.7334 12.7722 10.1853C13.1385 9.63709 13.334 8.99263 13.334 8.33335C13.334 7.4493 12.9828 6.60145 12.3577 5.97633C11.7326 5.35121 10.8847 5.00002 10.0007 5.00002ZM10.0007 10C9.67102 10 9.34878 9.90227 9.0747 9.71914C8.80062 9.536 8.587 9.2757 8.46085 8.97116C8.33471 8.66662 8.3017 8.33151 8.36601 8.0082C8.43032 7.6849 8.58905 7.38793 8.82214 7.15484C9.05523 6.92176 9.3522 6.76302 9.6755 6.69871C9.9988 6.6344 10.3339 6.66741 10.6385 6.79355C10.943 6.9197 11.2033 7.13332 11.3864 7.4074C11.5696 7.68149 11.6673 8.00372 11.6673 8.33335C11.6673 8.77538 11.4917 9.1993 11.1792 9.51187C10.8666 9.82443 10.4427 10 10.0007 10Z" fill="#983F20"/>
</svg>
