<svg width="20" height="20" viewBox="0 0 20 20" fill="none" xmlns="http://www.w3.org/2000/svg">
<path d="M15.8327 3.33331H4.16602C3.50297 3.33331 2.86709 3.59671 2.39825 4.06555C1.92941 4.53439 1.66602 5.17027 1.66602 5.83331V14.1666C1.66602 14.8297 1.92941 15.4656 2.39825 15.9344C2.86709 16.4033 3.50297 16.6666 4.16602 16.6666H15.8327C16.4957 16.6666 17.1316 16.4033 17.6004 15.9344C18.0693 15.4656 18.3327 14.8297 18.3327 14.1666V5.83331C18.3327 5.17027 18.0693 4.53439 17.6004 4.06555C17.1316 3.59671 16.4957 3.33331 15.8327 3.33331ZM4.16602 4.99998H15.8327C16.0537 4.99998 16.2657 5.08778 16.4219 5.24406C16.5782 5.40034 16.666 5.6123 16.666 5.83331L9.99935 9.89998L3.33268 5.83331C3.33268 5.6123 3.42048 5.40034 3.57676 5.24406C3.73304 5.08778 3.945 4.99998 4.16602 4.99998ZM16.666 14.1666C16.666 14.3877 16.5782 14.5996 16.4219 14.7559C16.2657 14.9122 16.0537 15 15.8327 15H4.16602C3.945 15 3.73304 14.9122 3.57676 14.7559C3.42048 14.5996 3.33268 14.3877 3.33268 14.1666V7.73331L9.56602 11.5416C9.6927 11.6148 9.8364 11.6533 9.98268 11.6533C10.129 11.6533 10.2727 11.6148 10.3993 11.5416L16.666 7.73331V14.1666Z" fill="#983F20"/>
</svg>
