<svg width="18" height="18" viewBox="0 0 18 18" fill="none" xmlns="http://www.w3.org/2000/svg">
<path d="M17.0916 15.9083L14 12.8417C15.2001 11.3453 15.7812 9.44608 15.624 7.53441C15.4667 5.62275 14.583 3.84398 13.1546 2.56387C11.7261 1.28375 9.86149 0.599588 7.94408 0.652055C6.02668 0.704522 4.20225 1.48963 2.84593 2.84595C1.48962 4.20227 0.704507 6.0267 0.65204 7.9441C0.599573 9.8615 1.28374 11.7261 2.56385 13.1546C3.84397 14.5831 5.62273 15.4668 7.5344 15.624C9.44606 15.7812 11.3453 15.2001 12.8416 14L15.9083 17.0667C15.9858 17.1448 16.078 17.2068 16.1795 17.2491C16.281 17.2914 16.39 17.3132 16.5 17.3132C16.61 17.3132 16.7189 17.2914 16.8205 17.2491C16.922 17.2068 17.0142 17.1448 17.0916 17.0667C17.2418 16.9113 17.3258 16.7036 17.3258 16.4875C17.3258 16.2714 17.2418 16.0637 17.0916 15.9083ZM8.16665 14C7.01292 14 5.88511 13.6579 4.92582 13.0169C3.96653 12.3759 3.21886 11.4649 2.77735 10.399C2.33584 9.33308 2.22032 8.16019 2.4454 7.02864C2.67048 5.89708 3.22605 4.85768 4.04186 4.04187C4.85766 3.22607 5.89707 2.6705 7.02862 2.44542C8.16018 2.22034 9.33307 2.33585 10.399 2.77737C11.4649 3.21888 12.3759 3.96655 13.0169 4.92584C13.6579 5.88512 14 7.01294 14 8.16666C14 9.71376 13.3854 11.1975 12.2914 12.2915C11.1975 13.3854 9.71374 14 8.16665 14Z" fill="white"/>
</svg>
