<svg width="18" height="16" viewBox="0 0 18 16" fill="none" xmlns="http://www.w3.org/2000/svg">
<path fill-rule="evenodd" clip-rule="evenodd" d="M16.7645 0.593048C15.568 1.0332 0.821727 6.69835 0.604532 6.80133C-0.117191 7.1434 -0.201566 7.59522 0.399254 7.90084C0.457262 7.93033 1.45538 8.24952 2.6173 8.61015L4.72991 9.26581L9.52698 6.26498C12.1653 4.6145 14.3772 3.24559 14.4421 3.22298C14.605 3.16617 14.7452 3.17148 14.8107 3.23694C14.8565 3.28275 14.8584 3.30574 14.822 3.37306C14.7979 3.41761 13.0458 5.00871 10.9285 6.90883C8.81126 8.80896 7.07325 10.3785 7.06625 10.3967C7.05929 10.4149 6.98768 11.3635 6.9071 12.5048L6.76064 14.5799L6.91979 14.5584C7.00733 14.5466 7.14595 14.5014 7.22783 14.458C7.30974 14.4146 7.86096 13.9153 8.45281 13.3484C9.04463 12.7815 9.54937 12.3099 9.57444 12.3002C9.59947 12.2906 10.542 12.9582 11.6689 13.7838C12.7957 14.6094 13.8061 15.3257 13.9139 15.3755C14.197 15.5064 14.5159 15.5193 14.723 15.4085C14.908 15.3095 15.0888 15.0636 15.1649 14.8076C15.1943 14.7085 15.8385 11.7318 16.5965 8.1927C17.8585 2.30031 17.9747 1.72983 17.9752 1.424C17.9756 1.13505 17.9636 1.06632 17.8861 0.914236C17.8315 0.807009 17.7385 0.697533 17.6475 0.633548C17.4395 0.487228 17.0951 0.471443 16.7645 0.593048Z" fill="#983F20"/>
</svg>
