<svg width="24" height="24" viewBox="0 0 24 24" fill="none" xmlns="http://www.w3.org/2000/svg">
<path d="M14.59 8H7C6.73478 8 6.48043 7.89464 6.29289 7.70711C6.10535 7.51957 6 7.26522 6 7C6 6.73478 6.10535 6.48043 6.29289 6.29289C6.48043 6.10536 6.73478 6 7 6H17C17.1307 6.00158 17.2598 6.02876 17.38 6.08C17.6243 6.18147 17.8185 6.37565 17.92 6.62C17.9712 6.74022 17.9984 6.86932 18 7V17C18 17.2652 17.8946 17.5196 17.7071 17.7071C17.5196 17.8946 17.2652 18 17 18C16.7348 18 16.4804 17.8946 16.2929 17.7071C16.1054 17.5196 16 17.2652 16 17V9.41L7.71 17.71C7.61703 17.8037 7.50643 17.8781 7.38458 17.9289C7.26272 17.9797 7.13201 18.0058 7 18.0058C6.86799 18.0058 6.73728 17.9797 6.61542 17.9289C6.49356 17.8781 6.38296 17.8037 6.29 17.71C6.19627 17.617 6.12187 17.5064 6.07111 17.3846C6.02034 17.2627 5.9942 17.132 5.9942 17C5.9942 16.868 6.02034 16.7373 6.07111 16.6154C6.12187 16.4936 6.19627 16.383 6.29 16.29L14.59 8Z" fill="#983F20"/>
</svg>
