<svg width="18" height="12" viewBox="0 0 18 12" fill="none" xmlns="http://www.w3.org/2000/svg">
<path fill-rule="evenodd" clip-rule="evenodd" d="M7.53602 0.908079C7.19395 0.932935 6.76033 0.999099 6.5868 1.05292C6.28885 1.14535 5.91756 1.47497 5.98622 1.5861C5.99884 1.60653 6.06796 1.63416 6.13979 1.64749C6.46224 1.70736 6.73421 1.89027 6.85613 2.12923C7.0645 2.53771 7.15823 3.81529 7.04611 4.71972C6.97204 5.31755 6.94072 5.45614 6.83089 5.67291C6.53621 6.2544 5.85945 5.78365 5.11361 4.47848C4.84818 4.01403 4.10122 2.52333 3.93454 2.12554C3.73309 1.64478 3.66932 1.55626 3.44028 1.43971L3.24695 1.34134L1.78797 1.35182C0.470454 1.36128 0.317947 1.36834 0.215044 1.42456C0.0519192 1.51372 -0.0177604 1.63543 0.0038255 1.7937C0.0269231 1.96326 0.580283 3.19324 0.98806 3.98144C1.78196 5.51597 2.45436 6.63029 3.17316 7.60253C4.23034 9.03251 4.6981 9.49647 5.7782 10.1866C6.28256 10.5088 6.64656 10.6891 7.09656 10.8395C7.71486 11.0461 7.98401 11.0858 8.90711 11.107C9.82578 11.128 10.0897 11.1015 10.2844 10.9687C10.4447 10.8593 10.4943 10.7084 10.5242 10.2393C10.5538 9.77621 10.6442 9.37915 10.7685 9.16709C10.8781 8.97995 11.1165 8.76385 11.2187 8.75879C11.5756 8.74121 11.7754 8.88946 12.5208 9.72506C13.2197 10.5085 13.478 10.739 13.8641 10.9239C14.0382 11.0072 14.2517 11.0918 14.3387 11.1117C14.5497 11.1601 17.397 11.1057 17.5809 11.0498C17.7629 10.9944 17.9589 10.8021 17.9634 10.6746C17.9757 10.3256 17.9248 10.1682 17.6807 9.79955C17.3598 9.31496 17.0841 9.00548 16.1455 8.07633C15.1488 7.08964 15.0792 6.99781 15.0778 6.66773C15.0766 6.39063 15.2061 6.17772 16.0811 5.01855C17.3155 3.38336 17.8097 2.59354 17.9471 2.0367C18.0277 1.71013 17.9819 1.55256 17.7739 1.4414L17.6259 1.3623L15.8505 1.37411C14.5954 1.38244 14.0497 1.39791 13.9885 1.42684C13.8693 1.48313 13.743 1.68837 13.5847 2.083C13.163 3.13407 12.2948 4.64828 11.7227 5.33049C11.495 5.602 11.1411 5.87988 11.0231 5.87988C10.8583 5.87988 10.7224 5.77346 10.6194 5.56375L10.5243 5.37011L10.5339 3.54483C10.5443 1.58195 10.5398 1.52398 10.3582 1.26481C10.1792 1.00954 9.74302 0.922001 8.57313 0.906638C8.09939 0.90038 7.6327 0.901048 7.53602 0.908079Z" fill="#983F20"/>
</svg>
