<svg width="20" height="20" viewBox="0 0 20 20" fill="none" xmlns="http://www.w3.org/2000/svg">
<g clip-path="url(#clip0_144_3562)">
<path fill-rule="evenodd" clip-rule="evenodd" d="M9.29195 0.00645855C7.78367 0.153451 6.64633 0.479388 5.41277 1.11802C3.52961 2.09302 2.00898 3.64451 1.06879 5.55025C0.707578 6.28243 0.537343 6.73122 0.348554 7.44927C0.110547 8.35427 0.0412498 8.90447 0.0391013 9.90571C0.0380466 10.4042 0.0585935 10.9452 0.0866013 11.1557C0.29957 12.7562 0.801523 14.1356 1.64101 15.4269L1.92082 15.8574L1.29926 17.6922C0.957382 18.7014 0.683086 19.5325 0.689687 19.5392C0.696328 19.5458 1.55137 19.2794 2.5898 18.9472C3.62828 18.615 4.4918 18.3432 4.50879 18.3432C4.52578 18.3432 4.68609 18.4342 4.86504 18.5454C5.04398 18.6567 5.4189 18.857 5.6982 18.9907C8.22375 20.1994 11.1108 20.3029 13.6968 19.2774C16.6268 18.1154 18.8773 15.5734 19.6807 12.5184C19.9267 11.5827 19.9891 11.0698 19.9891 9.98384C19.9891 8.8979 19.9267 8.38497 19.6807 7.44927C18.7383 3.8654 15.8658 1.07962 12.2412 0.23431C11.6321 0.0922789 10.9985 0.0203257 10.2295 0.00591167C9.79976 -0.00217426 9.37789 -0.00193989 9.29195 0.00645855ZM6.90957 4.64173C6.97426 4.67529 7.06488 4.7704 7.11101 4.85306C7.22746 5.06181 8.17711 7.34904 8.20476 7.4874C8.24015 7.66439 8.06707 7.96529 7.67879 8.40185C7.27359 8.85736 7.18652 9.00361 7.22258 9.16786C7.28808 9.46595 8.19148 10.664 8.74808 11.1909C9.61179 12.0085 10.9173 12.7849 11.499 12.8268C11.7981 12.8484 11.9071 12.7638 12.3646 12.1548C12.5722 11.8785 12.7936 11.6009 12.8566 11.5379C13.0072 11.3872 13.2309 11.3553 13.4817 11.4486C13.8035 11.5684 15.7704 12.5263 15.9085 12.6305L16.0407 12.7302L16.0189 13.1441C15.9629 14.2067 15.5902 14.7584 14.6044 15.2382C13.6673 15.6943 12.9337 15.6818 11.4975 15.1854C9.57074 14.5194 8.54801 13.8833 7.16219 12.4888C6.46875 11.791 5.97598 11.2011 5.41234 10.394C4.48359 9.06404 4.12742 8.03708 4.23344 6.99478C4.31844 6.15907 4.61047 5.54216 5.20027 4.9524C5.48558 4.66704 5.85894 4.54958 6.42086 4.56833C6.65926 4.57626 6.83402 4.60251 6.90957 4.64173Z" fill="#59CE72"/>
</g>
<defs>
<clipPath id="clip0_144_3562">
<rect width="20" height="20" fill="white"/>
</clipPath>
</defs>
</svg>
