<svg width="20" height="20" viewBox="0 0 20 20" fill="none" xmlns="http://www.w3.org/2000/svg">
<path d="M9.16732 1.66669C7.51914 1.66669 5.90798 2.15543 4.53757 3.07111C3.16716 3.98679 2.09906 5.28827 1.46833 6.81099C0.837595 8.33371 0.672567 10.0093 0.994111 11.6258C1.31565 13.2423 2.10933 14.7271 3.27477 15.8926C4.4402 17.058 5.92506 17.8517 7.54157 18.1732C9.15808 18.4948 10.8336 18.3297 12.3563 17.699C13.8791 17.0683 15.1806 16.0002 16.0962 14.6298C17.0119 13.2594 17.5007 11.6482 17.5007 10C17.5007 8.90567 17.2851 7.82204 16.8663 6.81099C16.4475 5.79994 15.8337 4.88129 15.0599 4.10746C14.2861 3.33364 13.3674 2.71981 12.3563 2.30102C11.3453 1.88224 10.2617 1.66669 9.16732 1.66669ZM9.16732 16.6667C7.84878 16.6667 6.55985 16.2757 5.46352 15.5432C4.36719 14.8106 3.51271 13.7694 3.00812 12.5512C2.50354 11.3331 2.37152 9.99263 2.62875 8.69942C2.88599 7.40621 3.52093 6.21833 4.45328 5.28598C5.38563 4.35363 6.57351 3.71869 7.86672 3.46145C9.15993 3.20422 10.5004 3.33624 11.7185 3.84082C12.9367 4.34541 13.9779 5.19989 14.7105 6.29622C15.443 7.39255 15.834 8.68148 15.834 10C15.834 11.7681 15.1316 13.4638 13.8814 14.7141C12.6311 15.9643 10.9354 16.6667 9.16732 16.6667ZM11.7507 10.525L10.0007 9.51669V5.83335C10.0007 5.61234 9.91286 5.40038 9.75658 5.2441C9.6003 5.08782 9.38834 5.00002 9.16732 5.00002C8.94631 5.00002 8.73435 5.08782 8.57807 5.2441C8.42179 5.40038 8.33399 5.61234 8.33399 5.83335V10C8.33399 10 8.33399 10.0667 8.33399 10.1C8.33892 10.1574 8.35299 10.2137 8.37566 10.2667C8.39282 10.3161 8.41516 10.3636 8.44232 10.4084C8.46513 10.4557 8.49307 10.5004 8.52565 10.5417L8.65899 10.65L8.73399 10.725L10.9007 11.975C11.0277 12.047 11.1713 12.0844 11.3173 12.0834C11.5018 12.0846 11.6816 12.0247 11.8283 11.9128C11.9751 11.8009 12.0805 11.6436 12.1282 11.4653C12.1759 11.287 12.163 11.098 12.0917 10.9278C12.0203 10.7577 11.8945 10.616 11.734 10.525H11.7507Z" fill="#983F20"/>
</svg>
