<svg width="35" height="42" viewBox="0 0 35 42" fill="none" xmlns="http://www.w3.org/2000/svg">
<g clip-path="url(#clip0_116_3344)">
<path d="M0.0936831 16.0566L0.0374732 8.02832L0 0H1.25535C1.96734 0 3.33512 0.148673 4.30942 0.353097C5.28373 0.557522 6.52034 0.854867 7.02623 1.02212C7.55086 1.20796 8.73126 1.72832 9.64936 2.19292C10.9234 2.84336 11.6916 3.40089 12.7596 4.46018C13.8464 5.53805 14.371 6.24425 15.0455 7.56372C15.5327 8.51151 15.9261 9.42212 15.9261 9.5708C15.9261 9.79381 16.2259 9.84956 17.4251 9.84956C18.3057 9.84956 18.924 9.77522 18.924 9.66372C18.924 9.55221 19.2425 8.79027 19.636 7.9354C20.0482 7.09912 20.7227 5.96549 21.1349 5.42655C21.5658 4.90619 22.409 4.0885 23.0086 3.62389C23.5894 3.15929 24.6199 2.49027 25.2944 2.13717C25.969 1.80265 27.0182 1.33805 27.6365 1.11504C28.2548 0.892035 29.5664 0.557522 30.5407 0.353097C31.515 0.167257 32.9202 0 35 0L34.9438 13.2876L32.8453 13.3248C31.0278 13.3805 30.7093 13.4177 30.6156 13.6965C30.5594 13.8823 28.8169 18.677 26.7559 24.3451C24.6949 30.0133 22.9711 34.6965 22.9336 34.7522C22.8961 34.808 22.8212 34.808 22.7837 34.7522C22.7275 34.6965 20.9288 29.9018 14.8581 13.4735L7.40096 13.3991L8.33779 13.8265C8.84368 14.0496 9.49946 14.5142 9.78051 14.8301C10.0803 15.1646 10.3051 15.4805 10.3051 15.5549C10.3239 15.6478 10.3988 16.0752 10.4738 16.5398C10.5862 17.0788 10.455 20.8513 10.1178 27.0398C9.81799 32.3549 9.48073 37.2425 9.36831 37.9115C9.25589 38.5805 9.01231 39.454 8.82495 39.8628C8.63758 40.2717 8.1879 40.885 7.81317 41.2009C7.43844 41.5354 6.83886 41.8513 6.50161 41.9071C6.18308 41.9814 4.89026 42 1.40525 41.9071L1.31156 16.354L0.0936831 16.0566Z" fill="white"/>
<path d="M10.6424 28.3407C10.8672 23.9549 11.1108 19.6248 11.167 18.7327C11.2232 17.8407 11.3544 17.0973 11.4481 17.0973C11.523 17.0973 11.7291 17.4504 11.8978 17.8965C12.0476 18.3239 14.0899 23.8805 16.432 30.2363C19.4673 38.4504 20.629 41.8327 20.4604 41.9071C20.3292 41.9628 18.6991 42 16.8442 42C14.9143 42 13.2655 41.9257 12.9657 41.7956C12.6847 41.7027 12.2163 41.3867 11.9165 41.108C11.6167 40.8292 11.2232 40.2903 11.0171 39.9186C10.8298 39.5283 10.5675 38.5619 10.455 37.7814C10.2677 36.592 10.3051 34.9566 10.6424 28.3407Z" fill="white"/>
<path d="M25.0321 30.7566C27.2243 24.7354 29.2479 19.1973 29.5102 18.454C29.7725 17.7106 30.0723 17.0973 30.166 17.0973C30.2409 17.0973 30.3721 17.7106 30.4095 18.454C30.4657 19.1973 30.7468 24.1035 31.0278 29.3814C31.4775 37.6327 31.5337 39.1195 31.3089 39.8814C31.1777 40.3832 30.8779 40.9779 30.6531 41.2195C30.4283 41.4611 29.9598 41.7212 29.5851 41.8142C29.2291 41.9257 27.1868 42 25.0509 42C22.9149 42 21.1349 41.9442 21.0974 41.8699C21.06 41.7956 22.8212 36.7965 25.0321 30.7566Z" fill="white"/>
</g>
<defs>
<clipPath id="clip0_116_3344">
<rect width="35" height="42" fill="white"/>
</clipPath>
</defs>
</svg>
